<?xml version="1.0" encoding="UTF-8"?>
<!DOCTYPE svg PUBLIC "-//W3C//DTD SVG 1.1//EN" "http://www.w3.org/Graphics/SVG/1.1/DTD/svg11.dtd">
<!-- Creator: CorelDRAW 2017 -->
<svg xmlns="http://www.w3.org/2000/svg" xml:space="preserve" width="60px" height="60px" version="1.1" style="shape-rendering:geometricPrecision; text-rendering:geometricPrecision; image-rendering:optimizeQuality; fill-rule:evenodd; clip-rule:evenodd"
viewBox="0 0 60000 60000"
 xmlns:xlink="http://www.w3.org/1999/xlink">
 <defs>
  <style type="text/css">
   <![CDATA[
    .fil1 {fill:#2788FF}
    .fil0 {fill:#2788FF;fill-rule:nonzero}
   ]]>
  </style>
 </defs>
 <g id="Layer_x0020_1">
  <metadata id="CorelCorpID_0Corel-Layer"/>
  <path class="fil0" d="M42420 36780l-15600 0 280 -430c300,-440 6510,-6610 10030,-10110 1080,-1070 1910,-1890 2230,-2210l130 -140c400,-400 570,-570 890,-650 220,-60 480,-50 930,-40 260,10 610,20 1110,20l260 0 20 260c40,560 440,1230 970,1760 510,510 1120,870 1660,890l270 0 0 7740 -270 0c-530,20 -1150,380 -1650,890 -540,530 -940,1210 -980,1760l-20 260 -260 0zm-14480 -550l14250 0c130,-630 560,-1320 1100,-1860 520,-520 1150,-910 1760,-1020l0 -6700c-610,-110 -1250,-500 -1770,-1020 -540,-540 -960,-1230 -1090,-1860 -360,0 -660,-10 -900,-20 -400,-10 -620,-20 -780,20 -170,40 -310,180 -630,510l-140 140c-310,310 -1140,1140 -2220,2210 -3050,3030 -8140,8080 -9580,9600zm21230 -21700c460,320 1090,1200 1700,2230 880,1480 1750,3270 2060,4050 930,2340 1520,5020 1700,7730 170,2610 -40,5250 -700,7660 -100,360 -210,750 -320,1120 -120,380 -240,760 -380,1120 -900,2400 -2120,4640 -3650,6640 -1480,1940 -3250,3650 -5310,5070 -530,370 -1330,900 -2100,1360 -570,340 -1130,650 -1580,840 -2260,960 -3880,1540 -5580,1870 -1700,340 -3480,440 -6060,440 -1830,0 -3850,-350 -5780,-920 -2090,-610 -4090,-1480 -5670,-2440l-30 -20c-710,-430 -2540,-1540 -2910,-2080l-100 -160 100 -150c270,-390 2860,-2960 4850,-4920 960,-960 1790,-1770 2120,-2110l100 -110c290,-300 420,-430 640,-500 180,-60 350,-50 670,-40 150,0 330,10 560,10l18580 10c630,0 1020,-190 1190,-440 50,-80 70,-160 70,-240 0,-70 -20,-150 -70,-230 -160,-230 -550,-420 -1190,-410 -6130,0 -12270,0 -18400,0l290 -420c180,-270 380,-470 590,-670 90,-90 190,-180 280,-270 70,-80 120,-140 160,-180 370,-400 370,-410 1280,-410l10690 10 0 0c210,0 640,10 1180,30 1910,60 5190,160 5490,-160 170,-160 200,-440 240,-740 110,-840 240,-1810 2440,-2160 190,-30 340,-110 440,-230 100,-130 150,-300 150,-530l0 -8240c0,-780 -310,-830 -750,-890 -530,-70 -1190,-170 -1830,-940 -380,-470 -420,-810 -460,-1170 -20,-200 -40,-410 -150,-650 -130,-310 -630,-290 -1180,-270 -160,0 -330,10 -460,10l-520 0 290 -430c120,-170 540,-680 940,-1040 290,-270 580,-470 800,-470l5150 0 0 19820 -280 0c-90,0 -220,0 -380,-10 -150,-10 -330,-10 -550,-10 -690,0 -1460,90 -1460,680 0,590 820,690 1700,690 290,0 560,-10 820,-20 250,-10 500,-20 680,-20 230,0 440,-70 580,-190 120,-110 200,-260 200,-460l0 -21140c0,-660 -750,-660 -1550,-650l-150 0c-680,0 -1370,0 -2050,0l-1630 0 4310 -4370 190 120zm1230 2510c-500,-830 -990,-1560 -1370,-1910l-3050 3100 320 0c680,0 1360,0 2050,0l140 0c1100,-10 2100,-10 2100,1200l0 21140c0,370 -140,660 -370,870 -250,220 -590,330 -950,330 -220,0 -440,10 -670,20 -280,10 -570,20 -830,20 -1160,0 -2250,-180 -2250,-1240 0,-1070 1060,-1230 2010,-1230 180,0 390,10 570,10l90 10 0 -18720 -4600 0c-60,0 -230,140 -430,320 -170,160 -340,340 -490,500 680,-20 1290,0 1560,610 130,320 160,570 190,810 30,280 50,540 330,880 510,610 1050,690 1490,750 710,100 1220,170 1220,1430l0 8240c0,350 -100,650 -280,870 -180,230 -450,380 -780,430 -1790,290 -1890,1040 -1970,1690 -50,390 -100,760 -390,1060 -470,480 -3910,380 -5910,320 -490,-20 -890,-30 -1160,-30l0 0 -10690 -10c-660,0 -670,0 -870,220 -60,60 -120,130 -180,200 -100,100 -190,190 -290,280l-150 150 17290 0c850,-10 1390,280 1650,660 110,160 160,350 160,540 0,180 -60,370 -170,540 -260,380 -810,680 -1640,670 -6190,0 -12390,0 -18580,0 -250,0 -430,-10 -580,-10 -260,-10 -400,-20 -480,10 -100,30 -200,130 -420,360l-100 110c-330,340 -1160,1160 -2130,2120 -1780,1760 -4060,4010 -4650,4680 510,500 2000,1400 2610,1770l30 20c1540,940 3490,1790 5550,2390 1880,550 3840,890 5620,890 2540,0 4290,-90 5950,-420 1670,-330 3250,-900 5480,-1850 430,-180 960,-470 1510,-800 760,-450 1540,-970 2070,-1340 2010,-1380 3740,-3060 5180,-4950 1500,-1960 2700,-4160 3580,-6500 130,-350 250,-720 360,-1090 120,-390 230,-760 320,-1100 640,-2350 850,-4930 680,-7480 -170,-2660 -750,-5280 -1660,-7570 -300,-760 -1160,-2520 -2020,-3970zm-37660 32000c0,180 50,310 120,410 90,130 210,230 340,340l0 0c2290,1980 4950,3530 7830,4580 2860,1040 5930,1600 9090,1600 5190,0 9870,-1490 13770,-3980 3720,-2380 6740,-5680 8830,-9490 2090,-3810 3250,-8150 3250,-12590 0,-4710 -1290,-9540 -4160,-14020 -290,-450 -1050,-1580 -1760,-2380 -380,-440 -730,-770 -890,-770 -370,0 -660,320 -910,600 -70,80 -140,160 -200,220l-34370 34370c-50,50 -130,120 -210,200 -300,270 -730,660 -730,910zm-330 720c-130,-190 -220,-420 -220,-720 0,-490 540,-980 910,-1320 70,-60 130,-120 190,-180l34370 -34370c60,-60 120,-130 190,-200 320,-360 700,-780 1310,-780 350,0 820,410 1300,950 720,820 1520,1990 1810,2450 2930,4580 4250,9520 4250,14320 0,4540 -1180,8960 -3320,12850 -2130,3900 -5210,7260 -9010,9690 -4000,2550 -8780,4070 -14070,4070 -3220,0 -6360,-570 -9270,-1630 -2950,-1080 -5670,-2660 -8010,-4680 -160,-130 -310,-270 -430,-450z"/>
  <path class="fil1" d="M42420 36500l-15090 0c370,-550 10880,-10930 12220,-12280 980,-990 610,-720 2870,-720 110,1230 1650,2870 2910,2900l0 7200c-1270,30 -2810,1700 -2910,2900zm6590 -21740c1060,710 3150,4850 3670,6150 1810,4550 2310,10370 980,15220 -190,700 -420,1510 -690,2210 -1740,4670 -4730,8740 -8850,11590 -920,630 -2580,1720 -3640,2170 -4480,1900 -6410,2280 -11520,2280 -3790,0 -8330,-1500 -11320,-3310 -670,-410 -2510,-1520 -2850,-2030 370,-550 5930,-5950 6940,-6990 680,-720 470,-560 1770,-560l18580 10c2000,10 2100,-1880 0,-1870l-17890 10c240,-350 540,-580 840,-900 480,-500 330,-510 1250,-500l10690 0c1170,0 6380,300 6870,-200 720,-740 -410,-2360 2520,-2830 520,-80 820,-450 820,-1030l0 -8240c0,-1880 -1390,-490 -2640,-2010 -560,-680 -270,-1060 -570,-1750 -250,-600 -1090,-420 -1890,-420 180,-280 1160,-1400 1510,-1400l4870 0 0 19280c-760,0 -2670,-260 -2670,930 0,1250 2220,930 3480,930 570,0 1050,-330 1050,-930l0 -21140c0,-990 -970,-930 -1970,-930 -1010,10 -2020,0 -3020,0l3680 -3740zm-36540 34280c0,480 260,720 550,960 4610,3980 10680,6240 17100,6240 20490,0 33180,-22890 21920,-40500 -470,-730 -2200,-3270 -2880,-3270 -600,0 -970,560 -1310,900l-34370 34370c-290,290 -1010,850 -1010,1300z"/>
  <path class="fil0" d="M17420 36520c-40,-410 -270,-880 -600,-1320 -360,-460 -820,-870 -1260,-1090l0 0c-100,-50 -230,-80 -360,-120 -420,-120 -800,-240 -800,-740l0 -6500c0,-480 250,-560 680,-690 310,-100 760,-240 1290,-750 220,-210 510,-580 730,-980 170,-300 300,-600 320,-850l20 -260 15740 0 -280 430c-310,450 -6880,6980 -10310,10380 -920,920 -1610,1600 -1890,1880 -100,100 -190,200 -270,280 -320,330 -470,480 -750,560 -220,60 -470,50 -940,40 -250,0 -570,-10 -1050,-10l-250 0 -20 -260zm-170 -1650c330,430 580,910 680,1360 310,0 590,10 820,10 420,20 640,20 790,-20 130,-40 250,-150 500,-410 70,-80 160,-170 270,-280 280,-280 980,-970 1900,-1890 2980,-2960 8360,-8300 9850,-9870l-14140 0c-60,270 -190,560 -340,830 -250,450 -580,860 -830,1100 -620,600 -1150,770 -1510,880 -190,60 -290,90 -290,170l0 6500c0,90 190,150 400,210 150,50 310,90 450,160l0 0c520,250 1050,720 1450,1250zm-440 -15550c0,690 800,820 1780,820 320,0 630,-20 930,-30 340,-10 670,-20 960,-20l15840 0 -290 420c-180,270 -380,470 -590,670 -90,90 -190,180 -280,270 -70,80 -120,140 -160,180 -370,400 -370,410 -1280,410l-14290 -10 0 0c-300,0 -280,0 -770,0 -1400,0 -1980,-10 -2200,100 -60,30 -70,130 -100,320 -30,270 -80,630 -290,1140 -80,210 -230,440 -410,640 -170,190 -370,360 -580,480 -660,370 -1140,380 -1480,390 -220,0 -340,10 -410,290 -130,580 -120,1940 -110,4980 0,1170 10,2560 10,3690 0,800 380,850 870,920 550,70 1200,160 1760,860 390,490 420,780 470,1120 20,190 50,400 160,680 160,380 550,360 1090,340 160,0 330,-10 480,-10l520 0 -290 430c-120,170 -540,680 -940,1040 -290,270 -580,470 -800,470l-5150 0 0 -19820 2020 0c320,0 560,-180 660,-400 40,-90 60,-180 60,-270 0,-90 -10,-180 -50,-250 -120,-220 -400,-390 -900,-390 -240,0 -530,-10 -820,-20 -250,-10 -500,-20 -780,-20 -820,0 -1500,100 -1500,690l0 21140c0,660 750,660 1550,650l150 0c680,0 1370,0 2050,0l1630 0 -4310 4380 -190 -140c-470,-320 -1090,-1200 -1710,-2240 -870,-1460 -1730,-3230 -2050,-4030 -1100,-2750 -1700,-5810 -1750,-8880 -50,-2990 420,-6000 1450,-8750 1030,-2750 2430,-5200 4210,-7350 1790,-2150 3950,-3990 6500,-5530 200,-120 380,-220 560,-320 120,-70 240,-130 330,-190 150,-90 330,-180 510,-270l0 0c170,-90 350,-170 530,-250 2260,-960 3880,-1540 5580,-1880 1710,-330 3490,-430 6060,-430 1290,0 2640,180 3920,450 1570,330 3050,810 4220,1280 780,310 2570,1180 4040,2050 1020,610 1900,1230 2210,1680l100 160 -100 150c-270,400 -3120,3220 -5120,5190 -830,820 -1510,1500 -1790,1790 -90,90 -170,170 -240,240 -200,220 -300,330 -500,400 -180,70 -370,60 -780,50 -110,0 -240,0 -390,0l-18590 0c-360,-10 -700,0 -940,100 -170,70 -280,200 -280,440zm1780 1370c-1280,0 -2330,-210 -2330,-1370 0,-520 240,-800 630,-950 320,-130 730,-150 1150,-140l18580 0c160,0 290,10 400,10 340,0 500,10 590,-30 70,-20 140,-100 280,-250 70,-70 140,-150 250,-260 280,-290 970,-970 1800,-1790 1800,-1780 4310,-4260 4920,-4950 -340,-370 -1070,-870 -1910,-1370 -1450,-860 -3200,-1710 -3960,-2010 -1140,-460 -2590,-930 -4130,-1250 -1250,-270 -2550,-440 -3810,-440 -2540,0 -4290,90 -5950,420 -1660,330 -3260,900 -5480,1850 -160,70 -330,150 -500,230l0 0c-160,80 -320,170 -470,260 -130,70 -240,130 -340,190 -180,90 -350,190 -540,310l-10 0c-2490,1500 -4610,3310 -6350,5410 -1750,2100 -3120,4500 -4130,7190 -1000,2690 -1460,5630 -1410,8550 50,3010 630,5990 1710,8690 310,780 1160,2520 2010,3960 500,830 1000,1560 1380,1920l3050 -3100 -320 0c-680,0 -1360,0 -2050,0l-140 0c-1100,10 -2100,10 -2100,-1200l0 -21140c0,-1060 910,-1240 2040,-1240 240,0 520,10 800,20 260,10 510,20 800,20 740,0 1180,300 1380,690 80,160 120,330 120,500 0,170 -40,340 -110,500 -190,400 -600,720 -1160,720l-1470 0 0 18720 4600 0c60,0 230,-140 430,-320 170,-160 340,-340 490,-510 -690,30 -1190,10 -1480,-680 -150,-350 -180,-600 -210,-820 -30,-260 -60,-480 -350,-850 -420,-530 -950,-600 -1410,-660 -750,-100 -1340,-180 -1340,-1460 0,-1750 0,-2800 -10,-3690 -10,-3080 -10,-4460 130,-5100 160,-700 430,-710 930,-720 280,0 680,-10 1220,-320 160,-90 310,-220 440,-360 140,-160 250,-330 320,-490 180,-440 220,-760 250,-1000 50,-370 80,-590 410,-750 330,-150 950,-150 2430,-150l770 0 0 0 14290 10c660,0 670,0 870,-220 60,-60 120,-130 180,-200 100,-100 190,-190 290,-280l150 -150 -14730 0c-330,0 -630,10 -940,20 -330,10 -670,30 -950,30zm-14560 9190c0,2630 370,5110 1050,7420 710,2440 1770,4710 3100,6800l1930 2590c510,640 860,660 1300,310 260,-210 560,-530 930,-920 240,-250 500,-530 770,-800l33210 -33210c660,-650 990,-990 960,-1240 -30,-260 -450,-610 -1300,-1300 -2100,-1720 -4660,-3090 -7420,-4030 -2780,-950 -5760,-1470 -8680,-1470 -7080,0 -13540,2920 -18230,7620 -4700,4690 -7620,11150 -7620,18230zm520 7570c-690,-2360 -1070,-4890 -1070,-7570 0,-7230 2990,-13830 7780,-18620 4790,-4790 11390,-7780 18620,-7780 2970,0 6020,530 8860,1500 2820,960 5440,2360 7590,4120 960,780 1440,1190 1490,1670 60,500 -330,910 -1110,1690l-33210 33210c-290,290 -540,550 -760,790 -380,400 -690,730 -990,970 -730,580 -1290,580 -2070,-410l-1940 -2600 -10 -10c-1370,-2140 -2450,-4460 -3180,-6960z"/>
  <path class="fil1" d="M17690 36500c-80,-960 -1080,-2180 -2010,-2630 -410,-200 -1010,-190 -1010,-620l0 -6500c0,-590 790,-180 1890,-1250 410,-390 1080,-1330 1130,-2000l14980 0c-360,540 -10850,10900 -12160,12220 -1020,1020 -520,780 -2820,780zm-1160 -17180c0,1430 2210,1040 3950,1040l15330 0c-240,350 -540,580 -840,900 -480,500 -330,510 -1250,500l-14290 0c-4370,0 -2850,-130 -3610,1720 -150,370 -490,780 -870,990 -2450,1370 -2130,-2640 -2130,9590 0,1890 1590,570 2690,1950 570,720 270,960 590,1730 290,690 920,500 1820,500 -180,280 -1160,1400 -1510,1400l-4870 0 0 -19280 1740 0c1210,0 1520,-1860 -230,-1860 -1530,0 -3370,-320 -3370,930l0 21140c0,990 970,930 1970,930 1010,-10 2020,0 3020,0l-3680 3740c-1060,-730 -3140,-4820 -3670,-6150 -2140,-5380 -2360,-11920 -290,-17430 2030,-5450 5550,-9710 10590,-12750 330,-190 600,-340 890,-500 300,-170 660,-360 1010,-510 4470,-1910 6430,-2280 11530,-2280 2860,0 5940,870 8040,1700 1300,520 5430,2610 6120,3640 -360,530 -5910,5950 -6880,6940 -690,710 -400,620 -1710,610l-18580 -10c-790,-10 -1510,60 -1510,820zm-12770 10560c0,5460 1570,10260 4200,14380l1930 2590c1150,1450 1690,350 3420,-1380l33210 -33210c1430,-1430 1440,-1470 -360,-2950 -4280,-3490 -10420,-5550 -16280,-5550 -14310,0 -26120,11810 -26120,26120z"/>
  <path class="fil0" d="M1740 30000c0,-800 90,-1720 170,-2550 20,-200 30,-400 60,-730 120,-1420 440,-2880 850,-4280 410,-1410 920,-2760 1430,-3990 320,-780 860,-1780 1440,-2760 620,-1040 1290,-2050 1850,-2760 150,-190 290,-360 420,-520 120,-150 240,-300 360,-450l10 0 1230 -1440c240,-280 720,-730 1260,-1200 740,-660 1600,-1380 2040,-1730 840,-670 2220,-1470 3170,-2090l10 -10c1510,-870 3400,-1710 5340,-2360 1780,-590 3610,-1020 5230,-1150l990 -90c1160,-90 1750,-140 2370,-140 650,-10 1290,50 2610,160l700 60c2270,190 4760,850 7150,1820 2450,990 4790,2300 6640,3750 2080,1630 3870,3390 5390,5380 1520,1980 2770,4180 3770,6680 280,690 500,1320 700,1970 190,650 370,1310 550,2050 120,470 220,950 310,1430 90,510 160,1040 220,1560 190,1620 260,3250 190,4870 -80,1620 -300,3230 -690,4810 -60,250 -100,390 -140,540 -180,770 -380,1550 -640,2210 -980,2450 -1680,4060 -2570,5570 -890,1500 -1970,2890 -3720,4870 -240,280 -720,730 -1260,1200 -740,660 -1600,1380 -2040,1730 -670,530 -1660,1200 -2680,1810 -1010,600 -2050,1160 -2820,1490 -410,180 -830,350 -1260,520 -440,180 -850,330 -1240,480 -2640,1000 -5840,1500 -9050,1500 -3220,10 -6450,-490 -9130,-1480 -420,-160 -830,-310 -1250,-470 -420,-170 -830,-330 -1260,-510 -1210,-500 -2330,-1120 -3400,-1820 -1070,-690 -2080,-1460 -3090,-2250l0 -10 -1440 -1230c-130,-110 -220,-210 -330,-320 -40,-40 -80,-80 -150,-160 -900,-910 -2370,-2780 -3190,-3840 -260,-360 -490,-710 -710,-1070 -210,-340 -430,-700 -650,-1090 -1190,-2070 -2130,-4370 -2770,-6760 -640,-2360 -980,-4800 -980,-7200zm710 -2500c-70,810 -160,1700 -160,2500 0,2350 340,4750 960,7060 630,2350 1550,4600 2710,6630 210,360 420,710 640,1070 210,340 440,680 690,1030l3140 3790 160 160c90,100 170,180 290,290l1430 1230c990,780 1990,1530 3040,2210 1040,680 2140,1290 3310,1770 450,190 850,350 1240,500 390,150 790,310 1250,480 2620,960 5790,1450 8940,1450 3140,-10 6270,-490 8850,-1470 430,-160 840,-320 1240,-480 400,-150 810,-320 1240,-510 760,-320 1770,-870 2760,-1460 1000,-600 1970,-1250 2620,-1770 430,-340 1270,-1050 2020,-1710 510,-460 970,-890 1210,-1150 1720,-1960 2790,-3320 3660,-4790 870,-1480 1560,-3070 2530,-5490 250,-630 440,-1390 620,-2140l130 -540c390,-1540 610,-3120 680,-4710 70,-1580 0,-3190 -180,-4780 -60,-500 -130,-1010 -220,-1520 -80,-480 -180,-950 -300,-1400 -190,-750 -360,-1400 -550,-2020 -190,-630 -400,-1250 -680,-1930 -980,-2450 -2200,-4610 -3690,-6550 -1490,-1950 -3250,-3680 -5290,-5280 -1820,-1420 -4110,-2700 -6510,-3670 -2340,-950 -4780,-1590 -7000,-1780l-700 -60c-1310,-110 -1950,-170 -2560,-170 -580,0 -1170,50 -2320,150l-990 90c-1590,130 -3370,540 -5100,1120 -1900,630 -3750,1450 -5230,2300l-3140 2080c-440,350 -1270,1050 -2010,1700 -510,460 -970,890 -1210,1150l-1230 1430c-130,170 -240,310 -360,440 -130,170 -260,330 -410,510 -540,700 -1200,1690 -1810,2710 -570,960 -1090,1930 -1400,2690 -510,1220 -1010,2550 -1410,3930 -410,1370 -710,2790 -830,4180 -10,130 -40,430 -70,730zm26810 -27500l1850 0 10 0c2070,60 4130,330 6110,800 1920,460 3770,1120 5470,1980 2570,1290 4690,2600 6580,4180 1890,1570 3570,3400 5280,5740 540,750 990,1470 1420,2230 430,760 820,1530 1240,2370 740,1460 1480,3530 2010,5760 470,1940 770,4010 770,5890l0 2100c0,1900 -310,3960 -770,5910 -550,2260 -1300,4350 -2050,5820 -1270,2520 -2590,4630 -4170,6530 -1570,1900 -3410,3580 -5710,5250 -750,540 -1470,990 -2230,1420 -750,420 -1520,820 -2370,1240 -1460,740 -3530,1480 -5760,2010 -1940,470 -4010,770 -5890,770l-2100 0c-1900,0 -3960,-310 -5910,-770 -2260,-550 -4350,-1300 -5820,-2050 -1710,-860 -3770,-2070 -5630,-3450 -1490,-1100 -2850,-2310 -3800,-3540 -640,-830 -1040,-1290 -1370,-1670 -670,-780 -1060,-1220 -2440,-3510 -360,-590 -670,-1220 -990,-1870l-250 -510c-1060,-2130 -1750,-4260 -2170,-6530 -420,-2260 -570,-4640 -570,-7260 0,-2700 590,-5640 1530,-8410 1020,-2980 2450,-5770 4020,-7860 1430,-1920 2720,-3420 4190,-4770 1470,-1340 3120,-2530 5250,-3820 2030,-1220 4300,-2170 6690,-2840 2440,-680 5000,-1060 7580,-1140l0 0zm1850 550l0 0 -1850 0 0 0c-2520,70 -5040,450 -7440,1120 -2340,650 -4560,1580 -6550,2780 -2110,1270 -3720,2440 -5160,3760 -1440,1320 -2710,2790 -4130,4690 -1530,2040 -2930,4780 -3930,7710 -930,2720 -1500,5590 -1500,8230 0,2590 150,4950 560,7170 410,2210 1080,4300 2120,6370l250 520c320,630 620,1250 970,1830 1360,2250 1730,2680 2380,3430 340,390 750,860 1390,1690 920,1190 2240,2360 3700,3440 1830,1360 3860,2550 5550,3400 1440,730 3490,1470 5700,2000 1900,460 3920,760 5780,760l2100 0c1840,0 3860,-300 5760,-750 2190,-520 4220,-1250 5650,-1970 840,-420 1610,-810 2340,-1230 730,-410 1440,-860 2180,-1390 2260,-1640 4070,-3290 5610,-5150 1550,-1860 2850,-3940 4100,-6430 730,-1440 1470,-3490 2000,-5700 460,-1900 760,-3920 760,-5780l0 -2100c0,-1840 -300,-3860 -750,-5760 -520,-2190 -1250,-4220 -1970,-5650 -420,-840 -820,-1610 -1230,-2340 -410,-740 -860,-1450 -1390,-2170 -1670,-2300 -3320,-4110 -5180,-5650 -1860,-1550 -3940,-2840 -6470,-4110 -1670,-850 -3480,-1490 -5350,-1940 -1940,-460 -3960,-720 -6000,-780z"/>
  <path class="fil1" d="M2020 30000c0,-1050 140,-2270 230,-3250 230,-2820 1240,-5750 2250,-8200 660,-1580 2190,-4090 3260,-5450 270,-360 510,-630 770,-970l1240 -1430c570,-650 2520,-2300 3260,-2890l3150 -2080c2870,-1660 7100,-3200 10460,-3480 3650,-300 2970,-310 6610,0 4550,380 10040,2670 13650,5510 4130,3220 7100,6990 9080,11940 550,1380 860,2490 1240,3980 240,960 410,1960 520,2960 360,3210 290,6470 -500,9580 -230,940 -450,1930 -770,2720 -1940,4860 -2770,6420 -6240,10360 -570,650 -2520,2300 -3260,2890 -1310,1050 -3900,2610 -5440,3270 -850,360 -1670,690 -2490,1000 -5240,1980 -12700,1960 -17980,10 -890,-320 -1620,-610 -2510,-970 -2370,-990 -4430,-2460 -6420,-4030l-1430 -1240c-180,-160 -290,-290 -470,-460l-3150 -3810c-520,-720 -920,-1380 -1350,-2140 -2340,-4060 -3710,-9040 -3710,-13820zm27240 -29730l1850 0c4050,120 8040,1020 11470,2750 5100,2570 8380,5200 11760,9840 1060,1470 1790,2880 2640,4560 1360,2700 2750,7530 2750,11540l0 2090c0,4060 -1420,8900 -2790,11610 -2530,5010 -5230,8370 -9800,11680 -1480,1070 -2870,1790 -4560,2640 -2700,1360 -7530,2750 -11530,2750l-2090 0c-4070,0 -8910,-1420 -11620,-2790 -3050,-1540 -7240,-4200 -9330,-6920 -1910,-2470 -1740,-1740 -3790,-5150 -450,-740 -820,-1540 -1240,-2370 -2090,-4190 -2710,-8450 -2710,-13660 0,-5530 2500,-12110 5490,-16110 2850,-3810 5130,-5960 9370,-8510 4060,-2460 9090,-3800 14130,-3950z"/>
  <path class="fil0" d="M36310 30000c0,590 620,690 1450,690 270,0 520,-10 770,-20 300,-10 610,-20 880,-20 340,0 560,-160 650,-380 40,-80 50,-180 50,-270 0,-90 -10,-190 -50,-270 -90,-220 -310,-380 -650,-380 -270,0 -580,-10 -880,-20 -250,-10 -500,-20 -770,-20l0 0c-830,0 -1450,100 -1450,690zm1450 1240c-1140,0 -2000,-180 -2000,-1240 0,-1060 860,-1240 2000,-1240l0 0c220,0 500,10 780,20 270,10 550,20 870,20 590,0 980,310 1150,710 70,160 100,320 100,490 0,170 -30,330 -100,490 -170,400 -560,710 -1150,710 -320,0 -600,10 -870,20 -280,10 -560,20 -780,20z"/>
  <path class="fil1" d="M36040 30000c0,1250 1700,930 3370,930 1310,0 1310,-1860 0,-1860 -1670,0 -3370,-320 -3370,930z"/>
  <path class="fil0" d="M20590 30650c270,0 580,10 880,20 250,10 500,20 770,20l0 0c830,0 1450,-100 1450,-690 0,-590 -620,-690 -1450,-690 -270,0 -520,10 -770,20 -300,10 -610,20 -880,20 -340,0 -560,160 -650,380 -40,80 -50,180 -50,270 0,90 10,190 50,270 90,220 310,380 650,380zm870 570c-270,-10 -550,-20 -870,-20 -590,0 -980,-310 -1150,-710 -70,-160 -100,-320 -100,-490 0,-170 30,-330 100,-490 170,-400 560,-710 1150,-710 320,0 600,-10 870,-20 280,-10 560,-20 780,-20 1140,0 2000,180 2000,1240 0,1060 -860,1240 -2000,1240l0 0c-220,0 -500,-10 -780,-20z"/>
  <path class="fil1" d="M20590 30930c1670,0 3370,320 3370,-930 0,-1250 -1700,-930 -3370,-930 -1310,0 -1310,1860 0,1860z"/>
 </g>
</svg>
