<svg xmlns="http://www.w3.org/2000/svg" xmlns:xlink="http://www.w3.org/1999/xlink" viewBox="0,0,256,256" width="48px" height="48px"><g fill="#6be3a2" fill-rule="nonzero" stroke="none" stroke-width="1" stroke-linecap="butt" stroke-linejoin="miter" stroke-miterlimit="10" stroke-dasharray="" stroke-dashoffset="0" font-family="none" font-weight="none" font-size="none" text-anchor="none" style="mix-blend-mode: normal"><g transform="scale(5.33333,5.33333)"><path d="M15.747,39.575l-13.303,-13.303c-1.562,-1.562 -1.562,-4.095 0,-5.657l1.414,-1.414c1.562,-1.562 4.095,-1.562 5.657,0l9.485,9.485l19.485,-19.485c1.562,-1.562 4.095,-1.562 5.657,0l1.414,1.414c0.97,0.97 1.338,2.314 1.103,3.568c-0.143,0.765 -1.511,1.497 -2.103,2.089l-22.303,22.303c-0.898,0.898 -2.075,2.347 -3.253,2.347c-1.177,0.001 -2.354,-0.449 -3.253,-1.347z"></path><path d="M19,40.923c-0.553,0 -1,-0.447 -1,-1c0,-0.553 0.447,-1 1,-1c0.693,0 1.347,-0.271 1.839,-0.763l23.304,-23.303c0.285,-0.286 0.476,-0.646 0.549,-1.042c0.103,-0.543 0.63,-0.894 1.167,-0.8c0.543,0.102 0.901,0.624 0.8,1.167c-0.148,0.794 -0.529,1.516 -1.101,2.088l-23.305,23.305c-0.87,0.869 -2.025,1.348 -3.253,1.348z"></path></g></g></svg>