<?xml version="1.0" encoding="UTF-8"?>
<!DOCTYPE svg PUBLIC "-//W3C//DTD SVG 1.1//EN" "http://www.w3.org/Graphics/SVG/1.1/DTD/svg11.dtd">
<!-- Creator: CorelDRAW 2017 -->
<svg xmlns="http://www.w3.org/2000/svg" xml:space="preserve" width="60px" height="60px" version="1.1" style="shape-rendering:geometricPrecision; text-rendering:geometricPrecision; image-rendering:optimizeQuality; fill-rule:evenodd; clip-rule:evenodd"
viewBox="0 0 60000 60000"
 xmlns:xlink="http://www.w3.org/1999/xlink">
 <defs>
  <style type="text/css">
   <![CDATA[
    .fil0 {fill:none}
    .fil2 {fill:#2788FF}
    .fil1 {fill:#2788FF;fill-rule:nonzero}
   ]]>
  </style>
 </defs>
 <g id="Layer_x0020_1">
  <metadata id="CorelCorpID_0Corel-Layer"/>
  <rect class="fil0" width="60000" height="60000"/>
  <g id="_3140254128112">
   <path class="fil1" d="M23560 53350c300,-80 930,-530 1300,-800 1610,-1150 3300,-2260 4940,-3380l0 8950 -4850 -3230c-170,-110 -490,-330 -800,-550 -320,-220 -620,-460 -730,-600l-210 -290 350 -100zm1590 -390c-290,200 -720,510 -1080,710 100,80 230,180 370,270 290,210 610,430 780,540l4080 2720 0 -7090 -4030 2760 -120 90zm17520 -42480c0,-30 0,-50 0,-80 30,-330 200,-590 430,-770 230,-170 520,-270 780,-270 20,0 50,0 80,0 250,20 660,250 1080,550 600,420 1270,990 1510,1230 190,190 350,330 520,460 180,160 370,310 580,530 700,700 1370,1450 2000,2240 630,780 1220,1610 1740,2480 1180,1990 2110,4020 2760,6190 640,2160 980,4460 980,6960 0,3360 -700,6490 -1820,9250 -1300,3200 -3170,5900 -5140,7860l0 10 -2270 2150 -10 0c-190,170 -400,320 -610,480 -70,50 -140,100 -260,190 -540,410 -1150,820 -1790,1220 -630,390 -1280,760 -1910,1070 -1440,710 -3190,1400 -5080,1880 -1580,410 -3270,660 -4950,660l-240 0 0 -2220 220 -20c2860,-240 5240,-760 7400,-1630 2170,-880 4150,-2100 6200,-3760 320,-250 650,-600 980,-940 150,-160 290,-310 410,-420 1000,-1010 1810,-1960 2520,-2990 720,-1040 1340,-2140 1970,-3440 1960,-4070 2470,-8730 1700,-13160 -770,-4480 -2840,-8730 -6020,-11910l-860 -860 -2560 -2100 -10 -20c-90,-90 -180,-240 -240,-400 -50,-140 -90,-290 -90,-420zm490 -50l0 50c0,60 30,150 60,240 40,100 90,180 140,240 740,610 1910,1460 2550,2100 210,220 390,390 580,590l290 280c3250,3250 5370,7600 6160,12180 780,4530 260,9290 -1740,13450 -640,1330 -1280,2460 -2010,3510 -730,1050 -1560,2030 -2580,3060 -150,150 -280,280 -410,410 -330,350 -680,710 -1020,990 -2090,1680 -4100,2930 -6320,3830 -2160,870 -4510,1400 -7320,1650l0 1260c1560,-20 3110,-260 4580,-640 1850,-470 3570,-1140 4980,-1850 620,-310 1260,-660 1870,-1040 620,-390 1220,-790 1760,-1200 50,-40 160,-120 260,-190 200,-140 380,-280 580,-450l0 0 2260 -2140 -10 0c1930,-1920 3750,-4560 5030,-7700 1100,-2700 1790,-5770 1790,-9060 0,-2460 -340,-4710 -970,-6820 -630,-2130 -1550,-4120 -2710,-6080 -500,-840 -1080,-1650 -1690,-2420 -620,-780 -1290,-1510 -1970,-2200 -200,-210 -380,-350 -550,-500 -180,-140 -350,-290 -550,-490 -230,-220 -870,-770 -1450,-1180 -350,-250 -680,-440 -830,-450l-40 0c-160,0 -330,60 -480,160 -130,110 -220,250 -240,410zm-1740 -190c0,1520 490,1900 1650,2830 620,500 1430,1130 2430,2140 3310,3310 5350,7910 5830,12700 470,4620 -510,9430 -3190,13410 -1300,1930 -2650,3500 -4200,4830 -1540,1320 -3290,2390 -5380,3330 -950,420 -2320,890 -3760,1230 -1180,270 -2420,460 -3510,460l-240 0 0 -250c0,-150 0,-340 10,-550 10,-210 20,-440 20,-690 0,-920 -170,-1880 -1300,-1880 -480,0 -2490,1440 -3560,2200 -260,190 -470,340 -600,430l-3100 2110c-630,480 -630,650 -630,1320l0 80 0 0c0,570 1600,1610 2770,2370 330,210 620,410 850,570 310,220 600,410 900,610 390,250 790,510 1180,800l190 140c760,570 1430,1070 2230,1070 930,0 1060,-1030 1060,-1960 0,-260 0,-480 -10,-680 -10,-190 -10,-360 -10,-480l0 -250 240 0c2920,0 6020,-740 8910,-1950 3080,-1290 5920,-3110 8040,-5150l2520 -2780c270,-350 510,-680 750,-1020 140,-190 280,-380 420,-580 740,-1000 1240,-2010 1780,-3090l180 -360c310,-620 580,-1230 820,-1870 240,-640 460,-1310 680,-2040 930,-3120 1240,-6130 1000,-9100 -230,-2980 -1000,-5910 -2210,-8890 -310,-740 -750,-1610 -1250,-2460 -540,-930 -1140,-1830 -1680,-2550 -430,-570 -1140,-1450 -1830,-2220 -500,-560 -1000,-1070 -1360,-1350 -350,-270 -680,-570 -1020,-880 -970,-880 -1960,-1790 -3310,-1790 -580,0 -1160,270 -1600,690 -430,410 -710,950 -710,1500zm1340 3220c-1290,-1030 -1840,-1470 -1840,-3220 0,-690 350,-1360 870,-1860 520,-500 1230,-830 1940,-830 1540,0 2600,980 3650,1920 330,310 650,600 980,860 390,300 910,830 1430,1410 710,790 1420,1680 1860,2260 550,730 1160,1650 1700,2590 510,860 970,1750 1280,2520 1240,3030 2020,6020 2260,9040 230,3030 -80,6100 -1030,9280 -220,740 -440,1420 -690,2070 -240,650 -520,1280 -840,1920l-180 360c-550,1100 -1060,2130 -1820,3160 -150,200 -280,390 -420,580 -240,350 -480,680 -770,1040 -850,940 -1700,1890 -2560,2830 -2160,2070 -5050,3930 -8190,5250 -2860,1200 -5940,1950 -8840,1990l0 210c10,230 20,470 20,700 0,1160 -200,2460 -1560,2460 -970,0 -1700,-550 -2530,-1170l-190 -140c-380,-290 -770,-540 -1150,-790 -310,-210 -620,-410 -920,-620 -220,-160 -510,-350 -830,-560 -1270,-820 -2990,-1940 -2990,-2780l0 0 0 -80c0,-870 0,-1090 820,-1710 970,-710 2120,-1490 3130,-2130 100,-70 310,-230 580,-420 1120,-800 3210,-2300 3850,-2300 1560,0 1800,1210 1800,2380 0,230 -10,480 -20,710 -10,100 -10,190 -10,280 980,-30 2080,-200 3140,-450 1410,-320 2750,-780 3670,-1190 2050,-920 3750,-1970 5260,-3260 1520,-1290 2840,-2830 4110,-4730 2610,-3880 3570,-8560 3110,-13080 -470,-4680 -2460,-9170 -5690,-12400 -990,-990 -1780,-1620 -2390,-2100z"/>
   <path class="fil2" d="M23620 53590c390,-100 1180,-690 1510,-930l4420 -3020 0 8020 -4460 -2970c-340,-230 -1290,-860 -1470,-1100zm19300 -43110c0,-560 570,-900 1020,-870 510,40 2040,1320 2430,1710 400,390 700,580 1110,990 1370,1390 2670,2950 3690,4670 2350,3940 3720,8060 3720,13020 0,7200 -3270,13320 -6890,16940l-2270 2150c-280,240 -560,430 -860,650 -1060,800 -2400,1640 -3660,2260 -2610,1310 -6270,2520 -9920,2520l0 -1740c5770,-480 9590,-2110 13730,-5450 470,-370 960,-930 1410,-1380 2030,-2030 3280,-3870 4540,-6500 3990,-8280 2030,-18950 -4370,-25340 -310,-320 -550,-550 -870,-870l-2550 -2100c-130,-150 -260,-450 -260,-660zm-1750 -240c0,2450 1160,2150 4160,5150 6420,6420 7990,17780 2610,25790 -2580,3830 -5340,6220 -9480,8070 -1700,760 -4790,1670 -7170,1670 0,-1160 410,-3370 -1510,-3370 -690,0 -3700,2270 -4300,2670l-3110 2120c-750,580 -720,760 -720,1600 0,900 2660,2390 3720,3140 680,490 1380,900 2070,1410 880,650 1620,1260 2570,1260 1620,0 1280,-2350 1280,-3370 6080,0 12970,-3180 17120,-7170l2540 -2810c430,-540 760,-1030 1180,-1610 830,-1120 1370,-2260 1980,-3480 640,-1260 1080,-2490 1510,-3950 1890,-6310 1240,-12150 -1220,-18150 -640,-1590 -1900,-3670 -2950,-5070 -750,-990 -2360,-2930 -3240,-3620 -1370,-1060 -2560,-2720 -4480,-2720 -1270,0 -2560,1170 -2560,2440z"/>
   <path class="fil1" d="M30120 10360l0 -8340 310 80c300,80 1590,970 2440,1560 280,190 510,350 650,450 250,160 480,330 720,490 220,170 460,330 720,510 100,60 200,130 310,200 450,280 1010,630 1230,960l130 210 -5360 3570c-110,80 -190,140 -260,190 -150,120 -260,190 -530,340l-360 190 0 -410zm490 -7620l0 7180 110 -80c70,-50 150,-110 270,-200l4930 -3280c-230,-210 -600,-440 -910,-640 -120,-70 -230,-140 -320,-200 -270,-180 -510,-350 -740,-510 -230,-170 -450,-320 -700,-490 -130,-80 -370,-250 -660,-450 -630,-440 -1500,-1040 -1980,-1330zm-1740 -1210l0 2340 -250 0c-1160,0 -2380,140 -3550,360 -1470,280 -2880,680 -4000,1060 -510,180 -2730,1020 -4270,1890 -810,460 -1410,900 -1410,1200 0,220 60,390 180,500l0 0c110,120 290,190 500,190 210,0 980,-440 1660,-820 320,-180 620,-360 860,-470 1560,-780 3280,-1440 5060,-1890l0 0c1640,-420 3320,-660 4970,-660l250 0 0 2220 -230 20c-3150,260 -5840,890 -8280,2000 -2440,1110 -4650,2700 -6820,4870 -3200,3200 -5250,7310 -6030,11650 -800,4370 -320,8970 1540,13130 760,1710 1890,3550 3210,5210 1230,1550 2620,2920 4020,3880 550,380 830,730 930,1050 80,240 60,470 -30,660 -80,180 -220,330 -380,440 -280,210 -650,310 -840,290 -230,-30 -520,-190 -800,-370 -260,-180 -490,-370 -620,-470 -820,-830 -2040,-1640 -2810,-2470 -2990,-3230 -5150,-7190 -6210,-11410 -1020,-4060 -1040,-8370 190,-12520 610,-2070 1450,-4100 2530,-5990 1010,-1760 2230,-3400 3670,-4830 170,-160 390,-350 620,-550 490,-420 1060,-910 1300,-1340 160,-290 140,-560 -260,-780 -440,-250 -890,170 -1450,680 -170,150 -340,310 -510,450 -120,100 -260,230 -400,370 -190,180 -370,370 -510,530 -2170,2340 -4010,5160 -5290,8210 -1180,2840 -1880,5870 -1880,8910 0,2970 230,5430 830,7760 600,2330 1570,4540 3050,7030 270,460 820,1250 1370,1990 470,630 950,1230 1280,1550 150,160 310,350 490,560 290,340 620,740 1060,1110 150,130 400,340 660,550 730,630 1480,1270 2290,1820 940,650 1880,640 2600,270 340,-170 630,-420 860,-710 230,-300 390,-640 480,-1010 190,-790 -20,-1690 -820,-2400 -190,-170 -400,-310 -620,-460 -200,-130 -400,-270 -580,-420l-80 -60c-360,-290 -730,-600 -1060,-930 -1190,-1200 -2170,-2260 -3020,-3430 -860,-1190 -1590,-2490 -2280,-4200 -680,-1700 -1070,-3000 -1280,-4340 -220,-1340 -260,-2710 -260,-4560 0,-1570 250,-3050 630,-4420 370,-1370 860,-2620 1330,-3730 630,-1480 1630,-3000 2800,-4400 1260,-1500 2710,-2870 4110,-3880l20 -10 3130 -1870 20 -10c1110,-510 2640,-1090 4260,-1500 1270,-320 2590,-540 3820,-540l250 0 0 250c0,140 -10,330 -10,530 -10,180 -20,380 -20,620l0 0c0,970 160,1970 1290,1970 420,0 1640,-850 2510,-1470 240,-170 460,-320 630,-440l3230 -2220c30,-30 80,-60 140,-100 250,-150 750,-470 1110,-870 410,-460 630,-1070 -80,-1700 -140,-120 -300,-250 -460,-370 -170,-120 -350,-240 -520,-350 -210,-130 -630,-420 -1140,-780l0 0c-1800,-1260 -4880,-3400 -5300,-3400 -420,0 -770,110 -1010,300 -240,190 -370,450 -370,730zm-500 1840l0 -1840c0,-440 210,-840 560,-1120 330,-250 780,-410 1320,-410 580,0 3730,2200 5580,3490l0 0c500,350 890,620 1130,780 170,110 350,230 530,360 180,130 360,270 510,400 1000,890 700,1750 120,2400 -410,450 -950,790 -1220,960 -50,40 -90,60 -120,80 -1020,660 -2260,1510 -3240,2230 -160,110 -370,260 -610,430 -930,660 -2230,1570 -2800,1570 -1570,0 -1780,-1260 -1780,-2470l0 0c0,-200 0,-420 10,-640l10 -260c-1110,30 -2300,230 -3450,520 -1580,400 -3080,970 -4160,1460l-3110 1860c-1360,980 -2780,2320 -4010,3790 -1140,1360 -2110,2840 -2720,4270 -470,1090 -950,2320 -1320,3670 -360,1330 -610,2770 -610,4290 0,1830 50,3180 260,4480 210,1300 580,2570 1250,4240 670,1660 1380,2930 2220,4090 840,1150 1800,2190 2970,3370 320,320 670,610 1020,900l80 60c180,140 360,270 550,390 230,160 460,310 670,500 960,840 1200,1930 970,2890 -100,430 -300,840 -570,1190 -270,350 -620,650 -1020,850 -880,450 -2000,460 -3110,-300 -820,-560 -1580,-1210 -2330,-1850 -190,-160 -370,-320 -650,-550 -470,-390 -820,-810 -1130,-1180 -160,-190 -310,-370 -460,-520 -350,-350 -840,-960 -1320,-1600 -570,-750 -1120,-1560 -1400,-2040 -1510,-2520 -2490,-4780 -3110,-7160 -610,-2380 -840,-4870 -840,-7880 0,-3100 700,-6210 1920,-9100 1290,-3100 3170,-5970 5380,-8360 150,-170 340,-360 520,-540 150,-150 300,-290 440,-400 180,-160 340,-300 490,-440 700,-640 1270,-1160 2020,-740 720,390 750,910 450,1450 -280,510 -880,1030 -1410,1480 -220,190 -430,370 -590,530 -1400,1390 -2600,2990 -3590,4720 -1060,1850 -1890,3840 -2490,5880 -1200,4060 -1180,8280 -180,12260 1040,4140 3150,8010 6080,11180l2780 2430c120,110 350,290 580,450 220,140 440,270 570,290 100,10 310,-60 500,-200 90,-70 180,-150 220,-250 40,-80 50,-190 10,-300 -70,-220 -290,-480 -740,-800 -1440,-980 -2870,-2390 -4120,-3970 -1350,-1690 -2500,-3570 -3280,-5320 -1900,-4250 -2390,-8950 -1580,-13420 800,-4440 2900,-8630 6170,-11910 2220,-2210 4470,-3840 6970,-4970 2430,-1110 5110,-1750 8210,-2030l0 -1260c-1530,20 -3080,250 -4600,640 -1750,440 -3430,1080 -4960,1850 -210,100 -520,280 -840,460 -730,410 -1560,880 -1900,880 -350,0 -640,-120 -850,-330 -210,-210 -330,-500 -330,-850 0,-510 710,-1090 1670,-1630 1570,-890 3830,-1750 4350,-1930 1140,-390 2570,-790 4070,-1070 1120,-220 2280,-360 3390,-380z"/>
   <path class="fil2" d="M30360 10360l0 -8020c350,90 2480,1610 3030,1980 490,330 900,640 1440,990 430,290 1220,740 1460,1100l-5160 3440c-360,250 -380,310 -770,510zm-1740 -8830l0 2090c-2640,0 -5590,740 -7630,1440 -810,270 -5850,2200 -5850,3320 0,570 370,930 930,930 410,0 1910,-950 2630,-1310 2960,-1480 6520,-2520 9920,-2520l0 1740c-6350,530 -10870,2560 -15250,6950 -6500,6490 -8290,16660 -4550,25050 1490,3340 4380,7190 7320,9190 1850,1260 260,2040 -150,1990 -370,-40 -1040,-580 -1290,-790l-2790 -2440c-5810,-6280 -8440,-15300 -5970,-23690 1170,-3970 3200,-7790 6150,-10710 860,-850 3060,-2260 1600,-3070 -750,-410 -1360,430 -2240,1160 -290,250 -670,630 -930,920 -4230,4570 -7240,10930 -7240,17290 0,5980 930,9910 3920,14910 520,870 1950,2860 2680,3600 430,430 870,1090 1570,1680 960,800 1920,1670 2970,2380 3010,2070 5980,-1980 3420,-4240 -360,-320 -820,-560 -1210,-880 -380,-310 -770,-620 -1110,-970 -2360,-2390 -3900,-4190 -5250,-7550 -1350,-3370 -1520,-5130 -1520,-8810 0,-3080 1000,-5850 1940,-8060 1290,-3010 4170,-6250 6820,-8170l3130 -1870c1950,-890 5230,-2010 7980,-2010 0,1240 -350,3370 1510,3370 630,0 2480,-1420 3280,-1950l3230 -2230c310,-220 2860,-1570 1190,-3060 -280,-250 -670,-510 -1000,-730 -1040,-690 -5940,-4230 -6580,-4230 -980,0 -1630,570 -1630,1280z"/>
   <path class="fil1" d="M25370 38730c-1690,0 -2470,-1110 -3480,-2540 -200,-280 -410,-580 -620,-860 -90,-120 -240,-310 -430,-550 -890,-1140 -2580,-3300 -2580,-3970 0,-720 160,-1270 430,-1680 260,-400 610,-660 1010,-790 390,-130 810,-130 1220,-30l0 0c480,130 950,400 1290,800 160,180 480,620 860,1140 880,1230 2150,2990 2410,2990 540,0 800,-240 1250,-650 180,-170 400,-370 670,-590l9920 -8210 60 -50c480,-420 1230,-1080 2050,-1080 50,0 100,0 160,10 580,40 1110,300 1510,690 390,390 640,920 640,1500 0,40 0,90 0,140 -90,1190 -1120,1980 -2210,2820 -280,220 -580,440 -840,660l0 0 -2260 1910c-1120,1000 -2590,2170 -4060,3350 -1460,1180 -2930,2360 -4080,3390l0 0 -110 100c-780,690 -1690,1500 -2810,1500zm-3080 -2830c930,1320 1650,2340 3080,2340 940,0 1770,-740 2480,-1380l110 -100 0 0c1150,-1030 2630,-2220 4100,-3400 1460,-1170 2910,-2340 4040,-3340l2280 -1920 0 0c290,-240 570,-460 850,-680 1000,-760 1950,-1480 2010,-2460 10,-30 10,-70 10,-100 0,-440 -200,-850 -500,-1150 -310,-310 -740,-520 -1200,-550 -30,0 -80,0 -120,0 -640,0 -1300,580 -1720,950 -1500,1310 -8840,7670 -10000,8270 -250,210 -460,410 -640,570 -540,500 -850,780 -1590,780 -510,0 -1860,-1870 -2810,-3190 -380,-510 -680,-940 -830,-1110 -280,-310 -650,-540 -1040,-630 -320,-90 -650,-80 -950,10 -290,100 -550,290 -750,590 -210,330 -340,790 -340,1410 0,500 1610,2570 2470,3670 190,230 330,420 430,550 240,320 440,600 630,870zm3190 -4560c-70,-240 -420,-670 -680,-1000 -90,-110 -160,-200 -230,-290l-300 -400c-240,-320 -470,-620 -700,-930 -600,-820 -1080,-1250 -1600,-1470 -520,-230 -1120,-260 -1950,-260 -540,0 -1110,240 -1620,600 -540,380 -990,900 -1210,1420 -880,2050 270,3530 1460,5050 170,220 350,440 520,670l900 1200c620,820 1230,1640 1840,2460l80 100c700,890 1670,1420 2730,1530 1080,110 2240,-200 3310,-990 40,-30 90,-70 140,-110 1900,-1500 3920,-3210 5930,-4920 2170,-1840 4330,-3680 6340,-5240l20 -20c1700,-1320 2560,-1980 2560,-4200 0,-400 -140,-810 -330,-1190 -250,-480 -600,-900 -900,-1150 -340,-290 -790,-540 -1280,-690 -450,-130 -940,-190 -1420,-120 -1410,180 -3150,1730 -4350,2800l-240 220 -5340 4420 0 0c-100,90 -270,240 -440,380 -200,170 -390,340 -620,530l0 0 -1610 1300c-90,80 -140,140 -180,180 -130,150 -180,200 -530,300l-240 60 -60 -240zm-300 -1310c230,280 520,630 670,940 40,-20 60,-40 90,-80 50,-50 120,-130 230,-230l10 0 1600 -1300c200,-160 410,-340 620,-520 120,-110 240,-210 450,-390l0 0 5340 -4420 230 -210c1240,-1110 3050,-2730 4610,-2920 550,-80 1110,-10 1620,140 550,170 1060,450 1460,780 340,290 730,760 1010,1300 230,440 390,940 390,1420 0,2460 -920,3170 -2750,4590l-20 20c-2010,1560 -4160,3390 -6320,5230 -2020,1710 -4040,3430 -5940,4930 -50,30 -100,70 -150,110 -1180,880 -2470,1220 -3660,1090 -1190,-130 -2290,-720 -3070,-1720 -20,-20 -50,-60 -90,-110 -650,-870 -1240,-1660 -1840,-2460l-890 -1190c-170,-220 -340,-450 -520,-670 -1280,-1640 -2520,-3220 -1530,-5540 260,-600 770,-1200 1390,-1640 580,-410 1260,-680 1900,-680 890,0 1540,30 2140,290 610,260 1150,740 1810,1630 270,360 480,640 690,930l310 400c50,70 130,170 210,280z"/>
   <path class="fil2" d="M25370 38480c-1880,0 -2580,-1540 -3910,-3300 -540,-730 -2950,-3660 -2950,-4370 0,-2710 2420,-2790 3520,-1540 520,600 2910,4220 3450,4220 880,0 1090,-500 2080,-1300l9920 -8210c450,-390 1180,-1070 1950,-1070 1130,0 2140,950 2060,2070 -100,1380 -1670,2230 -2960,3310l-2270 1910c-2250,2010 -5840,4700 -8130,6740 -780,690 -1680,1540 -2760,1540zm340 -7200c-100,-380 -690,-1040 -940,-1380 -350,-460 -640,-850 -1000,-1330 -1260,-1700 -2030,-1820 -3750,-1820 -1220,0 -2600,1080 -3060,2160 -1070,2500 640,4140 2010,5970 920,1230 1810,2390 2740,3660 1500,2010 4300,2400 6610,580 3950,-3120 8400,-7150 12270,-10170 1780,-1380 2670,-2060 2670,-4410 0,-990 -730,-2050 -1310,-2530 -710,-600 -1810,-1010 -2890,-870 -1590,200 -3500,2000 -4720,3080l-5340 4420c-370,320 -690,610 -1060,910l-1610 1300c-320,280 -200,320 -620,430z"/>
  </g>
 </g>
</svg>
