<?xml version="1.0" encoding="UTF-8"?>
<!DOCTYPE svg PUBLIC "-//W3C//DTD SVG 1.1//EN" "http://www.w3.org/Graphics/SVG/1.1/DTD/svg11.dtd">
<!-- Creator: CorelDRAW 2017 -->
<svg xmlns="http://www.w3.org/2000/svg" xml:space="preserve" width="60px" height="60px" version="1.1" style="shape-rendering:geometricPrecision; text-rendering:geometricPrecision; image-rendering:optimizeQuality; fill-rule:evenodd; clip-rule:evenodd"
viewBox="0 0 60000 60000"
 xmlns:xlink="http://www.w3.org/1999/xlink">
 <defs>
  <style type="text/css">
   <![CDATA[
    .fil0 {fill:none}
    .fil2 {fill:#2788FF}
    .fil1 {fill:#2788FF;fill-rule:nonzero}
   ]]>
  </style>
 </defs>
 <g id="Layer_x0020_1">
  <metadata id="CorelCorpID_0Corel-Layer"/>
  <rect class="fil0" width="60000" height="60000"/>
  <g id="_3140204226480">
   <path class="fil1" d="M52440 51660c-90,60 -170,110 -240,160 -200,130 -300,200 -330,310 -50,160 -40,470 -40,1070 10,320 10,720 10,1070 0,420 30,840 50,1240 70,1340 140,2520 -680,2720l-30 10 -6210 10 0 -9440c0,-100 0,-200 0,-300 10,-210 10,-420 0,-620 -30,-480 -150,-890 -640,-870 -610,40 -590,830 -570,1540 0,120 0,240 0,370l0 9320c-2990,0 -5970,-10 -8960,-10l-30 -230c-30,-140 -140,-810 -310,-1760 -640,-3630 -2010,-11400 -1890,-11880l10 -50c360,-510 720,-1030 1080,-1550l340 200 0 0c650,400 1440,880 2160,140 140,-140 820,-1450 1550,-2890 880,-1750 1800,-3680 1890,-3970l80 -280c1420,530 3640,1530 4980,1880 320,120 640,240 960,360 1260,460 2550,940 3390,1700 1240,1110 1950,2020 2350,3080 400,1060 480,2250 480,3960l0 60c0,900 0,1280 60,1460 30,80 120,130 260,210 80,50 170,100 270,170 720,-320 720,-580 680,-1750 -10,-350 -20,-780 -20,-1310 10,-890 -120,-1750 -360,-2560 -250,-840 -620,-1620 -1080,-2310 -240,-360 -460,-640 -690,-900 -220,-250 -480,-470 -800,-740 -1610,-1290 -2040,-1450 -3370,-1940 -420,-150 -930,-340 -1620,-620l-9610 -3750 0 -190c0,-600 -20,-1050 -40,-1420 -50,-1260 -60,-1670 680,-2210 280,-210 610,-550 910,-910 320,-390 620,-820 800,-1160l80 -140 160 0c500,0 840,-30 1120,-100 290,-60 540,-170 850,-330 1010,-520 1530,-1240 1780,-2110 270,-890 270,-1960 270,-3110l0 -220 220 -50c930,-220 1730,-590 2380,-1120 630,-520 1120,-1190 1440,-2010 360,-900 420,-1880 250,-2790 -180,-940 -600,-1800 -1210,-2420 -1180,-1180 -1690,-1310 -2220,-1440 -250,-60 -500,-120 -820,-270l-110 -60 -180 -770c-450,-1970 -730,-3210 -2240,-5180 -110,-140 -200,-250 -290,-350 -110,-120 -220,-250 -340,-410l0 0c-100,-120 -210,-250 -320,-370 -130,-130 -260,-260 -380,-370 -210,-180 -450,-370 -700,-560 -290,-220 -580,-420 -860,-610 -430,-290 -1750,-1000 -3010,-1420 -580,-190 -1140,-320 -1590,-320 -370,0 -650,90 -760,320 -20,60 -40,130 -50,210l10 100c120,490 390,540 890,630 100,20 220,40 330,60 290,60 600,140 890,230 300,90 590,190 860,300 480,200 950,450 1380,710 530,330 1020,690 1420,1010 760,620 1640,1670 2320,2770 600,980 1040,2010 1080,2810l20 270 -270 20c-1010,70 -1570,140 -1850,410 -290,270 -360,800 -420,1820l-20 530 -420 -330c-200,-160 -310,-290 -440,-440 -70,-80 -140,-170 -240,-270 -1550,-1570 -1920,-1350 -3000,-690 -270,160 -580,350 -960,550 -1750,910 -3360,1540 -5070,1920 -1700,390 -3500,530 -5620,490l-250 0 -20 -250c-30,-370 -20,-760 -10,-1150 20,-630 40,-1280 -160,-1790 -410,-730 -940,-750 -2030,-790l-350 -10 30 -290c80,-890 510,-1910 1100,-2860 680,-1110 1580,-2150 2360,-2780 1950,-1600 3420,-1920 4390,-2140 700,-150 1070,-240 1120,-830 -60,-330 -190,-480 -380,-520 -260,-50 -640,30 -1070,130 -1370,310 -2610,840 -3720,1550 -1150,750 -2160,1710 -3030,2830 -520,670 -990,1490 -1370,2350 -360,840 -640,1710 -760,2540 -180,1120 -440,1160 -1010,1260 -340,50 -820,130 -1570,730 -650,520 -1150,1140 -1490,1800 -460,880 -630,1850 -540,2790 90,940 450,1850 1070,2620 450,560 1030,1050 1750,1410 170,90 300,150 430,200 140,50 290,90 530,140 850,200 940,490 1030,760 70,200 130,380 2180,380l270 0 0 270c0,1200 240,2360 640,3390 420,1100 1040,2060 1750,2780 340,350 600,550 780,700 280,230 430,350 510,630 80,250 70,600 60,1310 -10,380 -20,890 -20,1640l0 190 -2410 960c-520,210 -1000,400 -1500,590l-760 300c-360,140 -960,360 -1670,630 -2460,920 -6250,2330 -7180,2960l-1700 1390c-870,920 -1450,1900 -1810,3010 -360,1120 -510,2370 -510,3790l0 6270 10 0c0,320 -20,780 -40,1280 -60,1660 -150,3890 310,4510 220,300 420,490 670,610 250,120 580,170 1060,180l0 0 510 0 0 0c8960,-60 18050,-40 27110,-20 4490,10 8960,20 13420,20l0 0 1620 0c150,-20 280,-60 410,-120 140,-60 280,-160 430,-290 640,-600 640,-870 630,-1960l0 -260c0,-840 0,-1680 0,-2520l0 -610c0,-200 10,-380 10,-550 20,-820 30,-1310 -660,-1480zm-540 -300c90,-60 190,-130 320,-220l100 -70 110 30c1260,240 1250,890 1220,2060 -10,160 -10,340 -10,530l0 610c0,840 0,1680 0,2520l0 260c10,1280 10,1600 -810,2360 -190,170 -370,300 -570,390 -190,90 -380,140 -590,170l-30 0 -1640 0 0 0c-4460,0 -8930,-10 -13420,-20 -9060,-20 -18140,-40 -27110,20l0 0 -510 0 0 0c-560,-10 -960,-80 -1300,-240 -340,-160 -600,-400 -870,-780 -570,-770 -480,-3110 -420,-4850 20,-470 40,-900 40,-1260l0 0 0 -6270c0,-1480 150,-2780 530,-3960 390,-1190 1010,-2250 1950,-3230l10 -10c580,-470 1170,-980 1760,-1430 970,-670 4810,-2100 7300,-3040 670,-250 1240,-460 1660,-620l760 -300c490,-190 960,-370 1500,-580l2060 -830c0,-580 20,-1080 20,-1470 20,-660 20,-970 -30,-1140 -40,-120 -140,-210 -330,-360 -200,-160 -460,-370 -830,-750 -770,-770 -1420,-1790 -1870,-2960 -390,-1020 -640,-2140 -670,-3320 -2180,-20 -2300,-360 -2430,-750 -40,-120 -90,-260 -630,-390 -250,-60 -420,-110 -590,-170 -160,-50 -310,-120 -510,-220 -780,-400 -1420,-940 -1920,-1560 -680,-850 -1080,-1860 -1180,-2900 -110,-1040 90,-2120 600,-3110 370,-720 910,-1390 1630,-1970 860,-690 1430,-780 1820,-840 310,-50 440,-80 560,-810 130,-870 420,-1790 800,-2670 390,-900 890,-1760 1440,-2470 900,-1160 1960,-2160 3160,-2940 1160,-760 2460,-1310 3900,-1640 490,-110 930,-200 1300,-120 430,90 720,360 820,1000l0 30 0 30c-60,1020 -580,1140 -1560,1350 -910,210 -2300,520 -4160,2030 -730,610 -1580,1590 -2240,2650 -480,780 -850,1600 -980,2340 1150,40 1730,120 2260,1070l10 20 0 10c250,620 230,1330 210,2030 -10,280 -20,570 -10,840 1970,20 3650,-120 5240,-480 1660,-370 3230,-980 4930,-1880 360,-190 670,-370 930,-530 1370,-830 1820,-1100 3680,780 90,90 160,170 230,250 70,-790 200,-1260 540,-1580 370,-350 940,-460 1900,-530 -110,-670 -480,-1490 -970,-2290 -640,-1050 -1480,-2060 -2190,-2630 -380,-310 -850,-650 -1370,-970 -410,-250 -850,-490 -1300,-670 -260,-110 -530,-200 -800,-290 -280,-80 -570,-150 -850,-210 -120,-30 -220,-50 -320,-60 -730,-140 -1130,-210 -1320,-1050 -20,-60 -20,-150 -30,-220l0 -20c10,-160 50,-300 110,-420 210,-460 670,-640 1250,-640 520,0 1140,140 1760,350 1320,440 2690,1180 3140,1480 300,200 600,420 890,630 250,190 500,390 730,590 140,130 280,260 410,400 130,140 250,270 360,410 130,170 230,280 320,390 100,120 200,230 310,380 1580,2060 1880,3350 2340,5390l120 510c210,90 400,130 590,180 600,150 1190,290 2480,1590 690,690 1160,1660 1360,2700 190,1010 110,2100 -280,3090 -360,910 -900,1650 -1600,2230 -670,550 -1470,940 -2400,1180 0,1110 -20,2140 -290,3060 -300,1000 -890,1830 -2060,2430 -360,190 -640,310 -970,390 -300,60 -630,100 -1090,100 -190,340 -480,740 -780,1110 -330,390 -690,760 -1010,990 -510,380 -490,710 -450,1760 10,350 30,770 30,1260l9270 3610c660,270 1180,460 1610,620 1390,510 1840,670 3520,2030 340,280 610,520 870,800 250,270 480,570 740,960 490,730 880,1560 1140,2450 260,860 390,1780 390,2720 0,510 10,940 20,1290 40,1570 50,1840 -1160,2330l-140 60 -120 -90c-140,-100 -260,-170 -360,-230 -250,-150 -390,-230 -490,-490 -100,-270 -100,-680 -90,-1650l0 -60c0,-1640 -80,-2780 -450,-3760 -370,-980 -1030,-1820 -2210,-2880 -760,-680 -2000,-1140 -3210,-1590 -330,-120 -660,-240 -970,-360l-4450 -1680c-280,670 -1070,2290 -1820,3780 -740,1490 -1460,2850 -1640,3030 -980,1000 -1930,500 -2730,10l-720 1040c-30,660 1280,8110 1900,11610 120,690 210,1230 270,1540l7940 10 10 -8770c0,-110 -10,-240 -10,-360 -20,-960 -50,-2030 1090,-2090 950,-50 1170,610 1210,1380 20,210 10,440 10,660 -10,100 -10,200 -10,290l10 8890 5590 -10c350,-130 290,-1080 230,-2150 -20,-420 -50,-860 -50,-1270 0,-510 0,-820 0,-1060 -10,-660 -20,-990 50,-1230 90,-310 240,-410 560,-620zm-22350 -24820c190,60 450,100 710,110 260,20 530,0 750,-40 60,-110 110,-200 120,-280 20,-50 20,-100 10,-120 -20,-30 -60,-60 -130,-80 -120,-50 -290,-70 -510,-70l-70 0c-330,0 -600,0 -780,60 -120,40 -170,150 -100,420zm680 660c-380,-20 -760,-90 -1010,-190l-120 -50 -40 -120c-240,-770 -40,-1100 430,-1240 240,-80 560,-80 940,-80l70 0c280,-10 520,30 690,90 200,70 340,190 420,330 90,160 100,330 60,530 -40,160 -130,340 -260,530l-60 80 -100 30c-290,80 -660,110 -1020,90zm13340 -13620c-90,-170 -240,-310 -430,-420 -150,-80 -320,-150 -500,-200l-10 6150c140,-50 270,-100 390,-170 210,-110 390,-250 550,-400l30 -10 20 -20c140,-80 270,-180 390,-310 390,-420 640,-1060 720,-1750 70,-700 -30,-1430 -350,-2010 -110,-200 -250,-390 -420,-550l-360 -240 -30 -70zm-160 -890c260,150 470,340 610,580l280 200 20 10c220,200 400,440 540,700 380,690 500,1530 410,2330 -90,800 -390,1560 -850,2060 -150,160 -320,300 -510,410 -180,150 -390,310 -630,440 -250,140 -540,250 -890,290l-300 30 10 -7450 320 50c350,70 700,180 990,350zm-3600 7440l0 180 530 10 10 -8560c-180,0 -360,0 -540,0l0 8370 0 0zm-550 460l0 -460 0 0 0 -8920 860 0 770 -10 0 9660 -1620 0 -10 -270zm-19560 -470l0 190 530 0 0 -190 0 -8360 -530 0 0 8360zm-550 470c-20,-3130 0,-6250 0,-9380l1620 0c0,3220 30,6440 0,9650l-1610 0 -10 -270zm-1750 -1490l0 -6140c-270,70 -540,210 -790,400 -420,310 -790,770 -1030,1300 -250,530 -360,1140 -290,1770 60,550 270,1120 680,1670 150,200 480,510 870,740 180,110 370,210 560,260zm550 -6480l0 7090 -290 -10c-370,-20 -760,-180 -1100,-390 -460,-270 -850,-640 -1030,-890 -470,-630 -710,-1290 -790,-1930 -80,-730 60,-1440 340,-2060 280,-620 710,-1140 1210,-1510 420,-310 880,-510 1360,-570l300 -30 0 300zm10650 16900c730,140 1480,170 2210,100 730,-70 1450,-240 2090,-500 560,-220 1150,-560 1660,-930 300,-220 570,-450 780,-670l-2220 -10c-360,570 -710,950 -1210,1170 -520,240 -1170,300 -2140,240 -1210,-70 -1990,-690 -2350,-1480 -160,-350 -240,-730 -230,-1100 0,-380 90,-760 260,-1100 390,-790 1200,-1410 2440,-1450 370,-20 750,-20 1110,20 390,50 750,140 1070,310 830,450 900,780 950,990 0,10 10,20 50,30 340,70 1280,70 3840,70 70,-230 130,-440 180,-620 240,-800 390,-1300 410,-2610l20 -6270c0,-740 -50,-800 -290,-1050 -60,-60 -140,-140 -230,-250l-1940 -2040c-190,90 -460,240 -790,430 -910,520 -2250,1270 -3820,1780 -1030,330 -1970,580 -2950,770 -980,200 -1990,330 -3160,400l-1820 -10c-10,420 -20,940 -30,1490 -50,2650 -130,6140 570,7790 500,1170 1220,2210 2200,3010 890,720 1990,1240 3340,1490zm2260 640c-780,70 -1580,40 -2360,-100 -1440,-270 -2630,-830 -3580,-1610 -1060,-850 -1830,-1960 -2360,-3210 -750,-1760 -670,-5320 -610,-8020 10,-620 20,-1200 20,-1750l0 -270 2340 0c1140,-70 2130,-190 3090,-380 960,-190 1880,-440 2880,-760 1520,-490 2830,-1230 3720,-1730 460,-270 820,-460 1050,-540l160 -60c720,760 1520,1540 2200,2320 80,90 160,170 220,240 350,370 440,460 440,1420l-20 6280c-30,1390 -180,1920 -430,2750 -70,240 -150,500 -240,810l-50 210 -380 0 0 -10c-2640,0 -3610,10 -4000,-80 -380,-80 -410,-220 -460,-440 -30,-110 -70,-300 -680,-630 -250,-130 -550,-210 -870,-240 -330,-40 -690,-40 -1030,-30 -1010,40 -1660,520 -1970,1150 -130,270 -200,570 -210,860 0,300 60,600 180,870 290,620 920,1110 1890,1170 880,50 1450,0 1880,-190 420,-190 720,-540 1050,-1100l80 -130 3600 10 -270 420c-250,400 -710,840 -1260,1240 -540,400 -1180,760 -1780,1000 -690,280 -1450,460 -2240,530zm-840 7350l3480 -4220c280,-360 260,-1100 230,-1810l0 -230c-270,80 -510,160 -740,240 -770,260 -1440,490 -2970,470 -1400,-20 -2140,-240 -3070,-520 -200,-60 -410,-130 -630,-190 0,290 -10,550 -10,760 -10,460 -20,700 20,870 50,170 170,320 430,650 100,130 220,280 360,470 180,220 350,420 500,610l120 140 0 0 2280 2760zm3910 -3880l-3910 4730 -2700 -3260 0 0 -120 -140c-170,-200 -350,-420 -510,-630 -140,-180 -260,-330 -360,-460 -310,-390 -450,-570 -530,-850 -60,-250 -50,-510 -40,-1020 10,-260 20,-600 20,-1110l0 -350 340 90c380,100 700,190 990,280 890,270 1600,490 2920,500 1430,20 2060,-190 2790,-440 320,-110 670,-230 1110,-340l340 -80 0 350c0,210 0,390 10,570 30,800 60,1630 -350,2160l0 0zm-2250 5500c270,230 840,660 1450,1100 720,520 1490,1050 1890,1300l2900 -5710 -2680 -1030 -3560 4340zm1130 1540c-820,-590 -1580,-1170 -1720,-1360l-120 -180 4090 -4990 3620 1390 -3420 6730 -240 -110c-260,-110 -1280,-800 -2210,-1480zm-10670 -4850c240,560 880,1890 1510,3160 550,1100 1090,2150 1340,2560 390,-230 1160,-770 1880,-1290 620,-440 1200,-880 1480,-1110l-3530 -4300 -2680 980zm1020 3400c-770,-1530 -1550,-3180 -1640,-3490l-60 -250 3540 -1290 4080 4970 -150 180c-140,170 -910,760 -1740,1350 -920,670 -1920,1350 -2160,1460l-180 90 -140 -150c-170,-180 -860,-1490 -1550,-2870zm7670 2230c-90,-130 -220,-250 -380,-360 -130,-90 -280,-180 -430,-260 -240,140 -670,430 -1070,720 -310,220 -590,430 -760,570l640 1030c230,0 460,0 680,0 170,-10 340,-10 510,-10 320,10 530,20 690,30 280,20 350,20 480,-110l690 -930c-120,-110 -260,-220 -410,-320 -160,-110 -330,-200 -480,-240l-100 -20 -60 -100zm-60 -800c170,120 340,260 460,420 180,60 370,160 550,280 250,170 480,380 660,560l160 160 -990 1340 -10 20c-320,320 -430,320 -920,290 -160,-10 -380,-30 -660,-30 -170,0 -340,0 -510,0 -280,0 -550,10 -840,0l-150 0 -1030 -1640 140 -160c120,-140 550,-460 1000,-780 500,-360 1050,-730 1270,-840l130 -60 120 70c210,110 420,230 620,370zm-1400 17050l3560 0 -1860 -11080 -200 -1140 -1660 -30 -2110 12240 2270 10zm3880 550c-2270,0 -4530,0 -6800,-20 770,-4440 1530,-8890 2300,-13340l2570 50c810,4430 1510,8870 2260,13310l-330 0zm-22470 -540l3750 -10 0 -8770c0,-110 0,-240 0,-370 -30,-950 -60,-2020 1090,-2080 950,-50 1170,620 1210,1400 10,210 10,440 0,650 0,100 0,190 0,280l10 8890 7930 0c90,-520 290,-1720 550,-3200 670,-3890 1670,-9710 1630,-9920 -20,-130 -120,-330 -260,-530 -140,-220 -300,-430 -430,-570 -1840,990 -2430,720 -3170,-590 -160,-300 -330,-630 -520,-1020 -90,-200 -200,-410 -310,-630 -160,-330 -370,-730 -610,-1180 -600,-1140 -1340,-2540 -1650,-3400 -700,220 -2480,890 -4130,1550 -1680,660 -3210,1300 -3290,1390l-50 60 -60 20c-480,180 -1000,540 -1470,970 -550,510 -1050,1120 -1350,1630 -380,630 -610,1300 -740,2030l0 0c-130,730 -160,1530 -160,2410 0,260 -10,830 -20,1580 -40,3040 -120,9100 60,9310l10 0c90,110 90,190 100,250l0 0c0,110 -10,-140 680,-150 390,-10 790,-10 1190,0l10 0zm4020 540c-1340,0 -2690,10 -4030,0 -400,0 -790,0 -1190,0 -1200,20 -1220,-90 -1230,-350 -280,-780 -200,-6620 -160,-9610 10,-750 10,-1320 10,-1570 0,-910 40,-1730 180,-2510l0 0c140,-780 380,-1510 800,-2210 330,-560 860,-1210 1450,-1750 520,-470 1080,-870 1630,-1080 400,-240 1850,-850 3400,-1470 1930,-760 4030,-1550 4460,-1640l250 -50 70 250c220,750 1040,2310 1690,3540 250,470 470,890 620,1190 120,230 220,440 320,640 190,390 350,730 500,990 560,1000 1020,1160 2600,280l180 -100 140 130c160,150 440,480 660,820 170,260 310,530 340,750 50,300 -960,6170 -1630,10090 -310,1780 -550,3160 -580,3420l-40 240 -8950 0 -10 -9440c0,-100 0,-190 10,-290 0,-200 0,-410 -10,-610 -20,-490 -140,-910 -630,-890 -620,30 -600,830 -580,1530 10,130 10,250 10,380l-10 9320 -270 0z"/>
   <path class="fil2" d="M52380 51360c-990,720 -810,190 -810,2910 0,1640 380,3500 -420,3690l-5900 10 -10 -9160c0,-880 160,-2120 -920,-2060 -1020,50 -830,1280 -830,2180l-10 9050 -8440 -10c-150,-890 -2340,-13010 -2200,-13530l900 -1300c760,450 1700,1100 2620,160 340,-350 3340,-6430 3500,-6970l4700 1770c1490,590 3250,1100 4270,2010 2420,2170 2740,3490 2740,6840 -10,2060 -10,1610 830,2210 1300,-530 960,-780 970,-3370 10,-1860 -560,-3630 -1490,-5020 -510,-750 -880,-1160 -1550,-1700 -2160,-1740 -2250,-1480 -5060,-2600l-9440 -3690c0,-2350 -300,-2800 530,-3410 630,-470 1430,-1480 1790,-2160 1040,0 1420,-120 2100,-460 2180,-1120 2200,-3120 2200,-5460 1910,-450 3330,-1540 4020,-3300 750,-1930 250,-4210 -1030,-5500 -1740,-1760 -2120,-1300 -3110,-1770 -550,-2390 -730,-3700 -2430,-5930 -230,-290 -380,-430 -640,-760 -210,-270 -480,-550 -730,-770 -470,-420 -1050,-840 -1590,-1200 -910,-610 -5660,-3030 -5840,-980l20 160c190,770 600,730 1440,900 570,120 1170,300 1700,520 1030,420 2030,1110 2730,1680 1380,1110 3210,3750 3300,5380 -2150,150 -2410,310 -2520,2480 -290,-230 -390,-410 -650,-680 -2080,-2110 -2240,-1280 -4290,-200 -3450,1820 -6360,2470 -10560,2390 -90,-990 160,-2140 -190,-3040 -500,-890 -1080,-900 -2330,-940 160,-1860 1970,-4320 3360,-5460 3600,-2950 5520,-1450 5610,-3190 -140,-990 -860,-860 -1780,-650 -2870,650 -5170,2240 -6910,4480 -1050,1360 -1920,3300 -2180,5010 -270,1700 -710,410 -2480,1820 -3220,2590 -2740,7240 830,9090 370,190 540,250 1030,360 1750,420 -460,1140 3270,1140 0,2550 1030,4910 2470,6360 1580,1610 1250,220 1250,4090l-2240 900c-790,320 -1470,570 -2260,880 -1790,700 -7700,2810 -8910,3630l-1720 1410c-1820,1900 -2410,4100 -2410,7000 0,2090 0,4180 0,6270 0,1520 -330,5060 330,5950 490,670 910,880 1950,910l510 0c13400,-100 27080,0 40530,0l1630 0c370,-50 680,-180 1010,-490 780,-730 730,-1010 730,-2420 -10,-1040 -10,-2090 0,-3130 0,-1360 210,-2100 -990,-2330zm-23050 -24610c430,180 1310,250 1850,100 450,-660 280,-1070 -680,-1060 -900,0 -1490,-20 -1170,960zm14480 -13290c-240,-470 -840,-740 -1440,-850l-10 6830c610,-70 1040,-390 1390,-690 1410,-770 1810,-3760 380,-5070l-320 -220zm-4270 6670l0 460 1070 0 10 -9110 -490 10 -590 0 0 8640zm-20120 0l10 460 1070 0 0 -460 0 -8640 -1070 0 -10 8640zm-1750 -710l10 -6800c-1920,220 -3770,3170 -1930,5640 280,380 1160,1130 1920,1160zm10880 10370c1510,280 3130,120 4450,-410 1160,-470 2440,-1400 2910,-2130l-2950 -20c-710,1210 -1330,1530 -3180,1420 -3140,-190 -3090,-4480 120,-4590 710,-30 1470,-10 2040,300 2080,1130 -1380,1120 5180,1120 380,-1400 630,-1760 650,-3490l20 -6280c10,-1040 -100,-920 -590,-1490l-2070 -2170c-610,200 -2450,1520 -4760,2270 -2030,650 -3740,1010 -6040,1150l-2080 0c0,2610 -340,7550 560,9660 990,2310 2810,4120 5740,4660zm1470 8150l3700 -4480c430,-560 270,-1670 270,-2560 -1440,350 -1850,810 -3970,790 -1800,-30 -2490,-410 -3970,-800 0,2510 -250,1830 860,3270 210,280 430,540 620,770l2490 3010zm1300 1210c260,350 3360,2550 3810,2760l3170 -6230 -3150 -1210 -3830 4680zm-9530 -3500c160,570 2800,5910 3120,6260 430,-210 3540,-2420 3810,-2750l-3810 -4640 -3120 1130zm9270 5660c-210,-330 -650,-580 -1040,-800 -380,200 -1950,1300 -2190,1560l850 1350c460,10 900,0 1340,0 1020,0 1050,150 1380,-180l840 -1140c-290,-310 -790,-700 -1180,-790zm-1690 16670l3880 -10 -1910 -11400 -240 -1360 -2120 -40 -2200 12790 2590 20zm-18590 0l4020 0 10 -9050c0,-890 -200,-2130 820,-2180 1070,-50 930,1170 930,2060l0 9160 8440 10c130,-880 2280,-13070 2220,-13440 -60,-410 -670,-1180 -910,-1400 -2430,1350 -2550,490 -3800,-2030 -590,-1170 -2030,-3710 -2330,-4780 -780,170 -7570,2810 -7810,3090 -1120,420 -2370,1730 -2950,2720 -810,1340 -950,2790 -940,4580 0,1320 -210,10720 110,11070 130,150 -250,210 990,190 400,0 800,0 1200,0z"/>
  </g>
 </g>
</svg>
