<?xml version="1.0" encoding="UTF-8"?>
<!DOCTYPE svg PUBLIC "-//W3C//DTD SVG 1.1//EN" "http://www.w3.org/Graphics/SVG/1.1/DTD/svg11.dtd">
<!-- Creator: CorelDRAW 2017 -->
<svg xmlns="http://www.w3.org/2000/svg" xml:space="preserve" width="60px" height="60px" version="1.1" style="shape-rendering:geometricPrecision; text-rendering:geometricPrecision; image-rendering:optimizeQuality; fill-rule:evenodd; clip-rule:evenodd"
viewBox="0 0 60000 60000"
 xmlns:xlink="http://www.w3.org/1999/xlink">
 <defs>
  <style type="text/css">
   <![CDATA[
    .fil0 {fill:none}
    .fil2 {fill:#2788FF}
    .fil1 {fill:#2788FF;fill-rule:nonzero}
   ]]>
  </style>
 </defs>
 <g id="Layer_x0020_1">
  <metadata id="CorelCorpID_0Corel-Layer"/>
  <rect class="fil0" width="60000" height="60000"/>
  <g id="_3140116497072">
   <path class="fil1" d="M2490 42280l5440 -5500c5090,5070 10180,10130 15270,15200l-5620 5680c-5090,-5060 -10180,-10130 -15260,-15200l170 -180zm5450 -4800l-4930 4980 14570 14500 4920 -4980 -14560 -14500zm21130 -30330l0 790c0,120 80,140 230,140 90,0 180,0 290,-10 300,-20 680,-40 1150,30l10 0c410,50 580,80 960,270 380,190 480,330 680,630l260 390 -3270 0 0 0c-320,0 -320,20 -310,420l0 250c0,90 40,100 100,100l110 0 140 0 3140 0 -20 270c-10,80 -40,180 -80,260 -40,110 -110,220 -150,290 -40,60 -100,140 -170,210 -60,70 -130,140 -200,180 -730,560 -1640,560 -2520,550l-290 0c-20,0 -40,0 -50,0 -30,60 -20,390 -20,630 10,90 10,180 10,210 0,110 20,130 80,190l10 10c40,40 60,70 80,100 20,20 30,30 50,50l50 50c30,30 60,60 90,90 440,500 890,1040 1350,1520 20,10 30,30 50,50 20,30 30,40 40,60l10 0c0,10 0,10 10,20l1570 1840c50,50 90,110 140,160 30,40 60,70 110,130l0 0c30,40 50,60 70,90l0 0c40,40 30,80 50,80l1490 0c0,-10 10,-30 10,-40 0,-50 -70,-30 -100,-80 -90,-100 -180,-210 -260,-310 -240,-290 -510,-620 -760,-930 -260,-310 -520,-610 -760,-880 -110,-130 -240,-280 -370,-440 -210,-240 -420,-490 -620,-700 -40,-40 -60,-60 -80,-90l10 0c-10,-10 -20,-20 -40,-40 -280,-280 -570,-630 -840,-930l550 0c120,0 290,-30 450,-70 230,-60 470,-130 600,-190 420,-170 750,-370 1010,-630 260,-270 460,-590 620,-990 40,-110 70,-240 100,-380l40 -150 40 -190 1130 0 0 0 80 0c170,0 230,40 240,20 20,-20 20,-160 20,-440 0,-140 -10,-140 -10,-220 0,-80 0,-120 0,-120 -10,-10 -50,-10 -120,-10l-1430 0 0 -240c0,-100 -50,-230 -100,-370 -100,-210 -220,-420 -320,-560l-250 -380 2140 0c40,-10 60,-10 70,-20 0,0 -10,0 -10,-30l0 -660c0,-30 0,-50 0,-70l-6280 0c-10,30 -10,60 -10,90zm-500 790l0 -790c0,-130 40,-270 110,-380l0 0c80,-120 210,-200 370,-200l6330 0c170,0 290,70 370,180 80,110 110,240 110,380l0 660c0,170 -60,300 -160,400 -90,80 -220,130 -360,140l-1280 0c40,80 80,170 120,260 40,100 80,200 110,300l970 0c210,0 360,50 470,160 110,110 150,260 150,470l0 220c0,370 0,560 -90,710 -140,210 -310,210 -660,210l-80 0 0 0 -730 0c-30,130 -70,270 -120,400 -180,460 -420,840 -730,1150 -310,320 -690,560 -1170,750 -150,60 -410,150 -680,210l-60 10 150 170c30,40 50,60 70,90l0 0c10,10 30,30 40,40 210,220 420,470 630,720 130,150 250,290 370,430 220,250 490,560 770,900 280,330 540,650 760,930l70 80c40,50 80,90 150,180l30 40c90,100 220,260 220,400 0,120 -30,250 -100,350 -80,110 -190,190 -350,190l-1540 0c-220,0 -320,-130 -440,-270l-50 -70 0 0 -120 -140c-40,-50 -80,-100 -130,-150l-1570 -1840c-30,-30 -40,-50 -50,-70l0 0 -20 -20 -20 -20c-10,-10 -20,-30 -40,-50l-1330 -1490c-20,-30 -40,-40 -60,-60l0 0c-30,-20 -50,-40 -70,-70 -40,-40 -60,-60 -80,-90 -10,-20 -20,-30 -40,-50l-10 -10c-160,-160 -230,-230 -230,-540 0,-90 0,-140 0,-200 -10,-330 -20,-780 150,-970 50,-70 120,-110 200,-130 60,-20 130,-30 210,-30l290 0c800,0 1620,10 2220,-450 40,-30 90,-80 140,-130 50,-50 90,-100 110,-140l40 -50 -2510 0 -130 0 -120 0c-390,0 -600,-60 -600,-600l0 -250c0,-870 0,-910 810,-910l0 -10 2260 0c-50,-20 -90,-50 -150,-80 -310,-150 -460,-170 -810,-220l-10 0c-420,-60 -770,-40 -1060,-30 -120,10 -230,20 -310,20 -470,0 -730,-110 -730,-640zm8980 23700l4210 0 0 3370 -4980 0 200 -360c170,-330 400,-920 480,-1520 50,-410 30,-810 -130,-1140l-170 -350 390 0zm3710 490l-3360 0c90,340 90,700 50,1060 -60,480 -210,960 -370,1320l3680 0 0 -2380zm-18920 -4330l19420 0 0 2420 -5160 0c-200,0 -400,-130 -660,-300 -420,-270 -1030,-660 -1860,-660l-11990 0 0 -1460 250 0zm18920 500l-18670 0 0 460 11490 0c970,0 1660,440 2130,740 190,130 340,220 390,220l4660 0 0 -1420zm-19090 20530l-11200 -11130 120 -170c290,-430 810,-920 1260,-1350 150,-140 300,-280 440,-430l3360 -3350c70,-70 160,-170 280,-300 490,-530 1300,-1420 1720,-1420l15330 0c1150,0 1910,530 2270,1210 140,290 220,600 230,910 0,310 -60,620 -190,910 -320,690 -1050,1250 -2180,1300 -890,40 -1860,30 -2810,10 -440,0 -880,-10 -1390,-10 -230,0 -500,-10 -780,-30 -250,-10 -510,-20 -780,-20 -780,0 -1430,120 -1430,760 0,220 70,400 190,520 120,120 300,190 520,190l15580 0c260,0 4420,-4290 5850,-5770l470 -480 4850 -4850 140 -140c750,-760 1940,-1970 3370,-700 1240,1110 560,2290 -150,3080 -190,210 -380,400 -530,540 -50,50 -100,100 -140,140l-14560 15400c-230,230 -340,400 -430,530 -110,160 -180,260 -340,330 -190,90 -460,90 -1130,80l-160 0 -10900 0 0 0c-350,0 -690,-10 -970,-10 -690,-20 -1020,-30 -1310,120 -280,150 -580,460 -1160,1070 -320,330 -720,740 -1210,1240 -140,140 -290,300 -450,470 -490,500 -1060,1110 -1470,1380l-170 120 -140 -150zm-10550 -11190l10740 10690c360,-280 830,-770 1230,-1190 180,-190 340,-360 460,-480 520,-520 900,-920 1200,-1230 620,-650 940,-980 1290,-1170 400,-200 770,-190 1540,-180 250,10 550,20 970,20l0 0c3680,0 7380,-30 11070,0 580,10 820,10 920,-40 30,-20 70,-70 140,-160 90,-140 220,-330 470,-600l14560 -15390c50,-50 100,-100 160,-160 140,-130 320,-300 500,-510 560,-630 1120,-1550 190,-2380 -1080,-960 -2070,50 -2690,680l-140 140 -4850 4850c-90,90 -240,250 -460,480 -1470,1510 -5750,5920 -6210,5920l-15580 0c-360,0 -660,-130 -870,-340l0 0c-210,-210 -330,-510 -330,-870 0,-1060 880,-1250 1920,-1250 250,0 530,10 800,20 260,10 500,20 760,20 390,0 890,10 1400,20 940,10 1900,30 2780,-10 920,-40 1500,-480 1750,-1020 100,-220 150,-460 140,-690 0,-240 -60,-470 -170,-690 -280,-530 -890,-940 -1830,-940l-15330 0c-210,0 -930,780 -1360,1250 -130,140 -230,260 -290,320 0,0 -3050,3040 -3360,3350 -120,120 -280,280 -450,440 -380,360 -800,750 -1070,1100zm10720 -13670l19420 0 0 2410 -19670 0 0 -2410 250 0zm18920 500l-18670 0 0 1420 18670 0 0 -1420zm-19170 -12710c0,-2750 1120,-5120 2840,-6850 930,-930 2040,-1670 3250,-2180 1210,-510 2520,-790 3840,-790 2380,0 4800,890 6820,2910 1920,1920 2880,4410 2880,6910 0,2500 -960,4990 -2880,6910 -660,660 -1380,1210 -2180,1660 -780,440 -1630,770 -2550,990 -1020,240 -2100,300 -3150,190 -1080,-100 -2130,-390 -3060,-820 -1740,-820 -3200,-2100 -4230,-3670 -1000,-1540 -1580,-3350 -1580,-5260zm3190 -6490c-1630,1630 -2690,3880 -2690,6490 0,1810 550,3530 1500,4990 970,1490 2370,2720 4020,3490 870,410 1870,680 2900,780 990,100 2020,50 2990,-180 870,-210 1670,-530 2420,-940 750,-430 1440,-950 2070,-1580 1830,-1820 2740,-4190 2740,-6560 0,-2370 -910,-4730 -2740,-6560 -1920,-1920 -4220,-2760 -6470,-2760 -1260,0 -2500,260 -3640,750 -1150,480 -2210,1190 -3100,2080zm-4610 6010c0,1460 140,2700 470,3840 330,1130 850,2170 1620,3220 1370,1870 2210,2360 3720,3250l500 300c310,220 620,440 930,660l-4610 0c-320,0 -650,-10 -940,-20 -950,-20 -1400,-30 -1570,350 -190,450 -170,1400 -150,3200 20,820 30,1820 30,2930l0 250 -250 0c-470,0 -930,-10 -1320,-20 -1030,-20 -1530,-30 -1960,200 -410,210 -820,640 -1620,1470 -440,470 -1000,1060 -1720,1780 -240,120 -3370,3320 -3890,3830l-170 -120c-410,-270 -700,-590 -950,-860 -90,-100 -180,-200 -250,-270 -370,-360 -710,-460 -1570,410 0,10 -5740,5750 -5750,5760 -880,870 -820,1180 -100,1910 150,160 330,330 530,520 230,220 480,460 770,750 1850,1850 14020,14010 14020,14020 1000,1000 1250,990 2030,210 120,-120 260,-260 410,-420 200,-200 410,-430 620,-630l3830 -3840c110,-110 280,-260 450,-420 560,-530 1190,-1110 1190,-1530 0,-400 -420,-790 -810,-1150 -230,-210 -440,-410 -590,-630l-90 -140 90 -130c110,-160 1030,-1120 1930,-2030 870,-880 1730,-1720 1850,-1790 680,-360 3990,-260 7340,-160 3410,100 6850,200 7300,-130 150,-110 380,-360 590,-580 100,-100 190,-210 280,-290l140 -140c110,-100 210,-200 320,-330 660,-780 1550,-1690 2400,-2550 650,-660 1280,-1300 1740,-1820l4070 -4320c700,-780 1450,-1560 2180,-2320 860,-890 1680,-1740 2380,-2580 720,-790 1530,-1660 2280,-2410 1130,-1130 1330,-2380 980,-3440 -160,-480 -440,-930 -790,-1310 -350,-380 -780,-690 -1240,-910 -1070,-490 -2350,-480 -3400,390 -320,260 -670,640 -1010,990 -170,180 -340,360 -480,490 -220,230 -700,720 -1330,1350 -2440,2470 -7060,7140 -7540,7460l-380 260 0 -3400c0,-1980 0,-3960 0,-5930l0 -40c0,-1030 0,-1530 -190,-1710 -180,-170 -620,-170 -1460,-160l-380 0 -5090 0 490 -430c40,-30 60,-50 70,-70l0 0c30,-20 40,-30 60,-50l0 0c30,-20 50,-30 80,-50 370,-210 750,-400 1120,-600 630,-400 1190,-840 1710,-1320 520,-480 1000,-1020 1450,-1620 1190,-1610 1910,-3590 2100,-5620 190,-1990 -130,-4040 -1010,-5830 -220,-440 -450,-870 -700,-1280 -250,-400 -530,-790 -860,-1150 -610,-690 -1110,-1200 -1680,-1650 -570,-450 -1200,-840 -2080,-1280 -1920,-960 -4210,-1270 -6390,-1000 -2180,270 -4250,1130 -5720,2510l-780 650c-100,110 -180,210 -260,320 -90,120 -190,250 -330,390 -330,340 -620,750 -890,1180 -270,430 -510,880 -720,1310 -290,600 -580,1340 -780,2160 -160,680 -270,1410 -270,2160zm0 3980c-350,-1190 -490,-2480 -490,-3980 0,-780 110,-1560 280,-2280 210,-860 510,-1630 820,-2260 220,-440 460,-910 740,-1350 280,-460 600,-890 950,-1260 130,-130 220,-250 300,-350l0 0c90,-130 180,-240 300,-370l790 -670c1560,-1450 3720,-2350 6000,-2630 2270,-290 4660,40 6670,1050 920,450 1570,860 2170,1330 590,470 1100,1000 1740,1710 350,390 650,800 910,1220 260,420 500,860 720,1320 930,1880 1260,4020 1060,6100 -200,2120 -950,4180 -2200,5860 -460,630 -960,1190 -1500,1690 -540,510 -1130,960 -1780,1380l-540 290 3540 0 380 -10c970,0 1480,0 1800,300 340,330 340,890 340,2070l0 40c0,1970 0,3950 0,5930l0 2390c1250,-1160 4970,-4930 7080,-7060 620,-620 1090,-1110 1330,-1350 170,-160 320,-320 470,-480 350,-360 710,-750 1050,-1030 1230,-1000 2700,-1020 3920,-460 530,250 1010,600 1410,1030 390,430 700,940 890,1490 400,1220 180,2650 -1090,3930l-2270 2400c-700,830 -1530,1700 -2390,2590 -720,750 -1470,1520 -2160,2310l-4080 4310c-460,530 -1100,1170 -1760,1850 -840,850 -1720,1740 -2370,2520 -130,150 -230,250 -360,370l-130 130c-80,70 -170,180 -270,280 -230,240 -470,500 -660,640 -580,430 -4110,320 -7610,220 -3280,-90 -6530,-190 -7080,110 -80,40 -900,850 -1740,1700 -730,740 -1470,1510 -1760,1820 110,130 260,260 410,400 460,430 960,900 960,1510 0,630 -710,1290 -1350,1890 -130,130 -270,260 -430,410l-3830 3840c-260,250 -440,450 -610,620 -160,160 -300,300 -430,430 -1070,1070 -1410,1100 -2720,-220 -1000,-990 -14020,-14010 -14020,-14010 -280,-280 -540,-530 -760,-750 -210,-190 -380,-360 -540,-520 -1000,-1010 -1090,-1440 100,-2610l5750 -5760c1170,-1180 1680,-990 2260,-410 100,90 180,180 280,280 190,220 420,460 700,680l3590 -3540c740,-740 1290,-1310 1720,-1770 820,-870 1260,-1330 1740,-1570 550,-280 1080,-270 2200,-250 290,0 630,10 1070,10 -10,-1100 -20,-1960 -30,-2680l0 0c-30,-1870 -40,-2850 190,-3390 300,-700 860,-680 2030,-650 260,10 550,10 930,10l2980 0 -50 -30c-1570,-930 -2440,-1440 -3870,-3390 -800,-1090 -1350,-2180 -1690,-3370z"/>
   <path class="fil2" d="M2660 42460l5280 -5330 14910 14850 -5270 5330 -14920 -14850zm26160 -35310l0 790c0,660 690,240 1880,400 390,60 550,80 900,250 330,160 410,290 590,550l-2810 0c-630,0 -560,40 -560,920 0,410 210,350 600,350l2870 0c-10,130 -130,340 -190,430 -70,110 -210,260 -310,340 -740,560 -1740,490 -2660,490 -110,0 -170,20 -230,80 -130,150 -80,730 -80,1010 0,220 50,260 160,370 60,60 70,90 130,150 50,50 90,80 130,130l1330 1500c30,30 50,40 70,70 40,40 30,50 70,80l1560 1840c90,100 160,190 250,290 110,130 180,260 310,260l1540 0c150,0 200,-150 200,-290 0,-60 -150,-230 -200,-280 -70,-100 -130,-170 -210,-270 -460,-560 -1070,-1300 -1520,-1820 -310,-350 -670,-800 -1000,-1140 -50,-50 -60,-80 -110,-130l-470 -520c330,0 900,-170 1140,-270 900,-360 1430,-900 1770,-1760 70,-170 100,-360 150,-560 310,0 620,0 930,0 640,0 580,40 580,-890 0,-290 -90,-380 -370,-380l-1180 0c-10,-320 -290,-800 -460,-1060l1700 0c180,-10 290,-90 290,-290l0 -660c0,-170 -60,-310 -230,-310l-6330 0c-160,0 -230,160 -230,330zm8730 24740l3960 0 0 2870 -4310 0c310,-590 790,-1970 350,-2870zm-15210 -3840l19170 0 0 1920 -4910 0c-370,0 -1150,-960 -2520,-960l-11740 0 0 -960zm0 20610l-11050 -10990c380,-560 1180,-1250 1680,-1740 580,-590 1090,-1090 1670,-1680 590,-590 1090,-1090 1680,-1680 320,-310 1430,-1640 1830,-1640l15330 0c2940,0 3010,3710 120,3830 -1330,60 -2840,0 -4190,0 -1370,0 -3240,-370 -3240,960 0,580 380,960 960,960l15580 0c420,0 6100,-5920 6490,-6320l4860 -4850c660,-670 1820,-2030 3160,-830 1540,1360 -340,2900 -830,3400l-14560 15390c-870,920 -210,890 -1880,880l-10900 -10c-2930,0 -1910,-420 -4820,2490 -510,510 -1360,1480 -1890,1830zm0 -24440l19170 0 0 1920 -19170 0 0 -1920zm0 -12460c0,-8180 10130,-12930 16320,-6740 3760,3750 3760,9730 0,13480 -1270,1270 -2810,2150 -4610,2580 -2020,480 -4280,210 -6040,-610 -3360,-1580 -5670,-4950 -5670,-8710zm-1920 -480c0,2960 570,5060 2140,7210 1540,2100 2420,2500 4290,3610l280 200c-1280,0 -2550,0 -3830,0 -3500,0 -2880,-820 -2880,6710 -4180,0 -2730,-560 -6790,3500l-3750 3690c-1340,-900 -1410,-2390 -3080,-690l-5750 5750c-1430,1410 -760,1580 1200,3530 740,750 1400,1410 2150,2160l11860 11860c1500,1510 1560,1020 3420,-840 660,-670 1240,-1250 1910,-1920 670,-660 1250,-1240 1920,-1910 660,-660 1710,-1480 1710,-2130 0,-770 -1070,-1360 -1440,-1920 190,-280 3480,-3620 3690,-3730 1250,-670 13660,430 14660,-310 250,-180 650,-650 910,-900 170,-170 310,-290 470,-480 1160,-1390 3080,-3170 4140,-4370l4070 -4310c1510,-1720 3260,-3360 4560,-4910l2270 -2400c3540,-3550 -1560,-8280 -4790,-5630 -480,400 -1030,1030 -1500,1500 -1140,1140 -8260,8390 -8840,8770 0,-2950 0,-5910 0,-8860 10,-2300 20,-2160 -2270,-2160 -1480,0 -2960,0 -4430,0 150,-130 40,-50 280,-200l1010 -540c1280,-820 2310,-1770 3230,-3000 2420,-3270 2930,-8010 1110,-11710 -440,-900 -920,-1730 -1590,-2490 -1260,-1400 -2040,-2080 -3840,-2980 -3930,-1970 -9370,-1280 -12390,1550l-780 660c-230,230 -330,430 -600,710 -680,710 -1220,1680 -1650,2550 -560,1130 -1080,2750 -1080,4430z"/>
  </g>
 </g>
</svg>
