<svg xmlns="http://www.w3.org/2000/svg" xmlns:xlink="http://www.w3.org/1999/xlink" id="Layer_1" x="0px" y="0px" width="419.429px" height="279.89px" viewBox="0 0 419.429 279.89" xml:space="preserve">
<path id="XMLID_178_" opacity="0.2" fill="#9FACD9" d="M399.557,227.938c-3.142-8.983-8.129-17.332-10.142-26.641  c-3.626-16.769,2.813-34.581-1.175-51.266c-5.121-21.426-25.648-35.014-45.264-44.668c-5.735-2.823-11.742-5.657-15.793-10.636  c-7.358-9.044-6.187-22.214-9.934-33.292c-4.156-12.285-14.558-21.751-26.407-26.777c-11.849-5.026-25.037-6.017-37.862-5.182  c-13.387,0.871-27.678,3.483-39.579-2.77c-7.435-3.907-12.837-10.788-19.468-15.965C177.416-2.158,153.306-3.25,134.767,6.449  c-18.54,9.699-31.269,29.107-34.869,49.883c-2.085,12.032-1.347,24.367-2.32,36.542c-0.973,12.175-3.97,24.807-12.142,33.809  c-5.103,5.62-11.83,9.398-18.219,13.459c-19.39,12.325-37.497,29.497-42.92,51.981c-5.157,21.377,1.943,43.528,3.084,65.563h375.643  C403.996,247.666,402.879,237.436,399.557,227.938z"></path>
<polygon id="XMLID_129_" fill="#F9C4AE" points="209.542,78.105 213.78,89.045 220.758,83.157 213.78,73.611 "></polygon>
<g id="XMLID_122_">
	<path id="XMLID_124_" fill="#F9C4AE" d="M214.091,92.328c-1.524,0.5-2.71,1.711-3.381,3.168   c-2.014,4.37-1.792,14.597,11.714,32.849c17.128,23.147-43.099-16.906-49.832-3.467c0,0-3.3,5.48,0.75,1.53   c5.765-5.623,30.912,14.081,44.124,19.596c14.73,6.148,20.577-2.263,17.447-14.956C232.007,119.261,224.286,88.985,214.091,92.328z   "></path>
	<path id="XMLID_123_" fill="#FFFFFF" d="M210.634,93.887c0,0-5.07,7.387,5.059,26.424l14.604-7.865   C230.297,112.446,223.207,83.474,210.634,93.887z"></path>
</g>
<g id="XMLID_58_">
	<g id="XMLID_62_">
		<g id="XMLID_87_">
			<path fill="#F9C4AE" d="M184.395,236.569l0.978,1.865c2.054,0.359,4.111,0.695,6.173,1c-0.756-2.203-1.649-5.02-2.508-8.218     c-2.166,0.554-4.331,1.106-6.497,1.66C183.138,234.118,183.755,235.35,184.395,236.569z"></path>
		</g>
		<path id="XMLID_86_" fill="#161831" d="M193.384,244.404c0,0-0.545-1.321-1.336-3.537c-0.113-0.326-0.797-2.304-0.896-2.597    c-0.087-0.262-0.179,0.702-0.21,1.066c-0.972-0.151-1.943-0.313-2.915-0.472c-0.189-0.232-1.044-1.977-3.254-1.573    c-1.545,0.282,0.73,1.393,0.73,1.393l-11.064,4.43L193.384,244.404z"></path>
	</g>
	<path id="XMLID_60_" fill="#F08223" d="M245.759,150.095l-18.789-1.094c0,0-31.416,16.389-45.731,33.994   c-5.226,6.234-8.065,12.896-6.799,23.085c1.047,8.434,2.908,15.071,6.333,22.936c0.565,1.298,1.156,2.585,1.769,3.861   c2.166-0.554,4.331-1.106,6.497-1.66c-3.159-11.769-5.78-28.627,1.221-38.551C201.825,176.271,249.403,172.517,245.759,150.095z"></path>
</g>
<path id="XMLID_88_" fill="#9FACD9" d="M204.906,242.315c0,0,0.863-4.89,4.662-6.559c3.799-1.67,14.319-1.67,14.319-1.67v8.041  L204.906,242.315z"></path>
<g id="XMLID_76_">
	<polygon id="XMLID_77_" fill="#27367C" points="314.413,186.232 316.134,187.814 337.621,164.522 334.376,164.522  "></polygon>
	<polygon id="XMLID_80_" fill="#27367C" points="285.778,172.771 286.554,174.977 315.502,164.522 309.226,164.522  "></polygon>
	<path id="XMLID_78_" fill="#F08223" d="M360.785,162.734h-64.981c-0.491,0-0.894,0.402-0.894,0.895   c0,0.491,0.402,0.894,0.894,0.894h13.423h6.276h18.874h3.244h23.164c0.492,0,0.895-0.402,0.895-0.894   C361.679,163.137,361.277,162.734,360.785,162.734z"></path>
</g>
<g id="XMLID_31_">
	<path id="XMLID_92_" fill="#27367C" d="M294.909,267.87c11.821,0,21.438-9.617,21.438-21.438c0-2.147-0.326-4.22-0.916-6.177   l-2.385-0.007c0.047,0.136,0.11,0.263,0.153,0.399c0.577,1.825,0.892,3.768,0.892,5.783c0,2.017-0.314,3.958-0.892,5.784   c-1.876,5.94-6.565,10.63-12.507,12.507c-1.825,0.577-3.768,0.892-5.783,0.892c-2.017,0-3.958-0.314-5.784-0.892   c-5.941-1.877-10.63-6.566-12.507-12.507c-0.577-1.826-0.892-3.768-0.892-5.784c0-2.016,0.314-3.958,0.892-5.783   c0.055-0.173,0.134-0.334,0.193-0.505l-2.394-0.007c-0.613,1.992-0.947,4.105-0.947,6.296   C273.471,258.253,283.088,267.87,294.909,267.87z"></path>
	<path id="XMLID_93_" fill="#27367C" d="M294.91,254.662L294.91,254.662c-0.812,0-1.475,0.664-1.475,1.475v3.621   c0,0.811,0.663,1.474,1.475,1.474l0,0c0.811,0,1.474-0.663,1.474-1.474v-3.621C296.383,255.326,295.72,254.662,294.91,254.662z"></path>
	<path id="XMLID_94_" fill="#27367C" d="M294.91,238.201L294.91,238.201c0.811,0,1.474-0.663,1.474-1.474v-3.621   c0-0.812-0.663-1.475-1.474-1.475l0,0c-0.812,0-1.475,0.663-1.475,1.475v3.621C293.435,237.538,294.098,238.201,294.91,238.201z"></path>
	<path id="XMLID_95_" fill="#27367C" d="M304.614,244.958c-0.811,0-1.474,0.663-1.474,1.474s0.663,1.475,1.474,1.475h3.621   c0.811,0,1.475-0.664,1.475-1.475s-0.664-1.474-1.475-1.474H304.614z"></path>
	<path id="XMLID_97_" fill="#252C5D" d="M289.125,228.141c1.826-0.576,3.768-0.892,5.784-0.892c2.016,0,3.958,0.315,5.783,0.892   c5.805,1.834,10.395,6.361,12.354,12.108l2.385,0.007c-2.659-8.817-10.849-15.261-20.522-15.261c-9.63,0-17.794,6.384-20.49,15.142   l2.394,0.007C278.792,234.447,283.357,229.963,289.125,228.141z"></path>
	<path id="XMLID_100_" fill="#252C5D" d="M294.909,224.118c10.161,0,18.74,6.833,21.427,16.141l11.46,0.033   c-2.885-15.544-16.507-27.318-32.886-27.318c-16.313,0-29.893,11.678-32.853,27.127l11.458,0.034   C276.242,230.89,284.793,224.118,294.909,224.118z"></path>
	<path id="XMLID_102_" fill="#27367C" d="M316.335,240.259c0.567,1.963,0.889,4.03,0.889,6.174   c0,12.304-10.011,22.313-22.315,22.313c-12.304,0-22.313-10.01-22.313-22.313c0-2.188,0.33-4.299,0.92-6.298l-11.458-0.034   c-0.393,2.052-0.606,4.166-0.606,6.331c0,18.479,14.98,33.458,33.459,33.458c18.478,0,33.458-14.979,33.458-33.458   c0-2.099-0.203-4.148-0.572-6.14L316.335,240.259z"></path>
	<path id="XMLID_103_" fill="#27367C" d="M285.205,244.958h-3.621c-0.811,0-1.475,0.663-1.475,1.474s0.664,1.475,1.475,1.475h3.621   c0.811,0,1.474-0.664,1.474-1.475S286.015,244.958,285.205,244.958z"></path>
	<path id="XMLID_104_" fill="#FFFFFF" d="M294.909,224.118c-10.115,0-18.667,6.771-21.394,16.017l0.903,0.002   c2.696-8.758,10.86-15.142,20.49-15.142c9.674,0,17.863,6.443,20.522,15.261l0.904,0.003   C313.649,230.951,305.07,224.118,294.909,224.118z"></path>
	<path id="XMLID_105_" fill="#FFFFFF" d="M316.347,246.433c0,11.82-9.617,21.438-21.438,21.438c-11.82,0-21.438-9.617-21.438-21.438   c0-2.19,0.334-4.304,0.947-6.296l-0.903-0.002c-0.59,1.999-0.92,4.109-0.92,6.298c0,12.304,10.01,22.313,22.313,22.313   c12.305,0,22.315-10.01,22.315-22.313c0-2.144-0.321-4.211-0.889-6.174l-0.904-0.003   C316.021,242.213,316.347,244.285,316.347,246.433z"></path>
	<path id="XMLID_106_" fill="#FFFFFF" d="M289.125,232.603v-4.462c-5.769,1.822-10.333,6.307-12.313,12.003l6.995,0.021   C286.906,239.046,289.125,236.088,289.125,232.603z"></path>
	<path id="XMLID_107_" fill="#FFFFFF" d="M283.807,240.164l-6.995-0.021c-0.06,0.171-0.139,0.332-0.193,0.505h4.462   C282.039,240.648,282.955,240.472,283.807,240.164z"></path>
	<path id="XMLID_108_" fill="#FFFFFF" d="M308.738,240.648h4.462c-0.043-0.137-0.106-0.264-0.153-0.399l-6.857-0.02   C306.991,240.497,307.846,240.648,308.738,240.648z"></path>
	<path id="XMLID_109_" fill="#FFFFFF" d="M300.693,228.141v4.462c0,3.552,2.304,6.56,5.496,7.627l6.857,0.02   C311.087,234.502,306.498,229.975,300.693,228.141z"></path>
	<path id="XMLID_110_" fill="#FFFFFF" d="M281.081,252.216h-4.462c1.877,5.94,6.565,10.63,12.507,12.507v-4.462   C289.125,255.817,285.524,252.216,281.081,252.216z"></path>
	<path id="XMLID_111_" fill="#FFFFFF" d="M300.693,260.261v4.462c5.941-1.877,10.631-6.566,12.507-12.507h-4.462   C304.294,252.216,300.693,255.817,300.693,260.261z"></path>
	<path id="XMLID_114_" fill="#9FACD9" d="M306.189,240.229l-22.382-0.065c-0.853,0.308-1.769,0.484-2.727,0.484h-4.462   c-0.577,1.825-0.892,3.768-0.892,5.783c0,2.017,0.314,3.958,0.892,5.784h4.462c4.443,0,8.045,3.602,8.045,8.045v4.462   c1.826,0.577,3.768,0.892,5.784,0.892c2.016,0,3.958-0.314,5.783-0.892v-4.462c0-4.443,3.602-8.045,8.045-8.045h4.462   c0.577-1.826,0.892-3.768,0.892-5.784c0-2.016-0.314-3.958-0.892-5.783h-4.462C307.846,240.648,306.991,240.497,306.189,240.229z    M285.205,247.906h-3.621c-0.811,0-1.475-0.664-1.475-1.475s0.664-1.474,1.475-1.474h3.621c0.811,0,1.474,0.663,1.474,1.474   S286.015,247.906,285.205,247.906z M296.383,259.758c0,0.811-0.663,1.474-1.474,1.474l0,0c-0.812,0-1.475-0.663-1.475-1.474v-3.621   c0-0.811,0.663-1.475,1.475-1.475l0,0c0.811,0,1.474,0.664,1.474,1.475V259.758z M309.709,246.432c0,0.811-0.664,1.475-1.475,1.475   h-3.621c-0.811,0-1.474-0.664-1.474-1.475s0.663-1.474,1.474-1.474h3.621C309.045,244.958,309.709,245.621,309.709,246.432z"></path>
	<path id="XMLID_119_" fill="#879CD0" d="M283.807,240.164l22.382,0.065c-3.192-1.067-5.496-4.075-5.496-7.627v-4.462   c-1.825-0.576-3.768-0.892-5.783-0.892c-2.017,0-3.958,0.315-5.784,0.892v4.462C289.125,236.088,286.906,239.046,283.807,240.164z    M293.435,233.106c0-0.812,0.663-1.475,1.475-1.475l0,0c0.811,0,1.474,0.663,1.474,1.475v3.621c0,0.811-0.663,1.474-1.474,1.474   l0,0c-0.812,0-1.475-0.663-1.475-1.474V233.106z"></path>
</g>
<path id="XMLID_81_" fill="#334999" d="M217.328,242.279v-33.925c0,0-7.977-10.987-9.438-26.371l81.236-14.67  c0,0,26.971,7.215,39.169,31.982c11.177,22.695,10.262,39.297,10.262,39.297h-4.929L231.5,240.101L217.328,242.279z"></path>
<g id="XMLID_4_">
	<path fill="#334999" d="M151.427,134.25c-3.971-0.112-7.843,1.62-10.879,4.183c-3.322,2.806-5.736,6.551-7.762,10.381   c-4.322,8.17-7.217,16.988-9.307,25.991c-0.752,3.241-2.018,6.607-1.755,10.011c0.198,2.564,1.432,5.199,3.715,6.386l2.297,1.427   c0,0-0.899-11.04,11.396-34.709c8.971-17.271,13.407-21.942,15.15-23.206c0.205-0.148,0.098-0.467-0.155-0.467L151.427,134.25z"></path>
</g>
<path id="XMLID_65_" fill="#9FACD9" d="M153.892,139.067l13.058,6.17l-1.013,3.558c-0.167,0.588-0.352,1.171-0.575,1.74  c-0.938,2.402-2.123,4.707-3.614,6.813c-1.79,2.526-4.006,6.76-3.329,11.593c0.442,3.158,0.625,6.35,0.321,9.523  c-1.325,13.822-3.008,48.832,6.865,63.641l-14.382-1.169c0,0-18.117-25.57-9.898-54.135l9.334-32.501L153.892,139.067z"></path>
<path id="XMLID_66_" fill="#252C5D" d="M151.574,240.936l14.032,1.169c0,0,44.586,1.748,66.794-3.512l19.116-6.569l4.383,3.507  c0,0-15.451,10.296-56.688,10.491l-37.099-0.395C162.111,245.627,154.295,245.411,151.574,240.936z"></path>
<path id="XMLID_64_" fill="#9FACD9" d="M149.687,250.287c0,0-1.487,6.787,4.002,9.895c5.489,3.108,50.782,5.645,61.009,1.658  c10.228-3.985,24.527-12.857,24.527-12.857s-16.638,7.197-42.353,9.232c0,0-19.87,0.692-37.11-1.646  C159.762,256.569,153.702,254.979,149.687,250.287z"></path>
<path id="XMLID_82_" fill="#27367C" d="M318.958,186.9L318.958,186.9c1.78-1.272,4.229-1.012,5.692,0.615  c3.244,3.607,8.916,10.146,13.408,16.545c0.616,0.878,1.525,1.506,2.57,1.747l3.935,0.907c1.193,0.275,2.038,1.338,2.038,2.563  v1.251c0,1.323-0.983,2.44-2.296,2.608l-10.118,1.293C334.187,214.43,328.617,195.129,318.958,186.9z"></path>
<path id="XMLID_83_" fill="#1F3D83" d="M274.469,156.566c-6.145-0.583-12.108,1.894-18.162,3.095  c-6.314,1.253-12.808,1.118-19.236,1.466c-6.428,0.347-13.003,1.235-18.657,4.313s-10.259,8.74-10.524,15.172v1.371  c6.95,4.38,15.983,5.595,24.276,4.438c10.806-1.508,20.798-6.375,30.83-10.663c8.627-3.688,19.727-7.121,29.023-7.498  C289.542,161.884,281.286,157.214,274.469,156.566z"></path>
<path id="XMLID_75_" fill="#334999" d="M154.241,139.39c0,0,3.476-4.964,3.038-10.224l6.136-10.812l13.471,6.283l-9.935,20.601  L154.241,139.39z"></path>
<path id="XMLID_85_" fill="#9FACD9" d="M164.455,125.438c0.226-0.366,0.344-0.787,0.397-1.214c0.217-1.722,0.261-6.175-4.506-8.5  c-5.99-2.922-14.464,16.51-9.789,16.072C155.021,131.377,162.28,128.961,164.455,125.438z"></path>
<path id="XMLID_90_" fill="#252C5D" d="M138.179,240.846c-2.66-15.817-16.411-27.872-32.985-27.872  c-4.31,0-8.425,0.824-12.208,2.308c6.338,1.382,17.307,5.013,31.39,14.564C130.036,233.686,133.829,238.574,138.179,240.846z"></path>
<path id="XMLID_91_" fill="#1F3D83" d="M124.376,229.846c-14.083-9.552-25.052-13.183-31.39-14.564  c-12.438,4.879-21.25,16.982-21.25,31.15c0,18.479,14.979,33.458,33.458,33.458c18.478,0,33.458-14.979,33.458-33.458  c0-1.904-0.167-3.769-0.473-5.586C133.829,238.574,130.036,233.686,124.376,229.846z"></path>
<path id="XMLID_9_" fill="#FFFFFF" d="M105.193,268.746c-12.304,0-22.314-10.01-22.314-22.313s10.01-22.314,22.314-22.314  s22.315,10.011,22.315,22.314S117.498,268.746,105.193,268.746z M105.193,224.995c-11.821,0-21.438,9.616-21.438,21.438  c0,11.82,9.617,21.438,21.438,21.438s21.438-9.617,21.438-21.438C126.631,234.611,117.014,224.995,105.193,224.995z"></path>
<path id="XMLID_33_" fill="#FFFFFF" d="M99.41,232.603v-4.462c-5.941,1.877-10.63,6.566-12.507,12.508h4.462  C95.808,240.648,99.41,237.046,99.41,232.603z"></path>
<path id="XMLID_37_" fill="#FFFFFF" d="M119.022,240.648h4.462c-1.877-5.941-6.566-10.631-12.508-12.508v4.462  C110.977,237.046,114.579,240.648,119.022,240.648z"></path>
<path id="XMLID_38_" fill="#FFFFFF" d="M91.365,252.216h-4.462c1.877,5.94,6.566,10.63,12.507,12.507v-4.462  C99.41,255.817,95.808,252.216,91.365,252.216z"></path>
<path id="XMLID_39_" fill="#FFFFFF" d="M110.977,260.261v4.462c5.941-1.877,10.631-6.566,12.508-12.507h-4.462  C114.579,252.216,110.977,255.817,110.977,260.261z"></path>
<path id="XMLID_51_" fill="#9FACD9" d="M123.485,240.648h-4.462c-4.443,0-8.045-3.603-8.045-8.046v-4.462  c-1.825-0.576-3.767-0.892-5.783-0.892s-3.958,0.315-5.784,0.892v4.462c0,4.443-3.602,8.046-8.045,8.046h-4.462  c-0.577,1.825-0.892,3.768-0.892,5.783c0,2.017,0.315,3.958,0.892,5.784h4.462c4.443,0,8.045,3.602,8.045,8.045v4.462  c1.826,0.577,3.768,0.892,5.784,0.892s3.958-0.314,5.783-0.892v-4.462c0-4.443,3.602-8.045,8.045-8.045h4.462  c0.577-1.826,0.891-3.768,0.891-5.784C124.376,244.416,124.062,242.474,123.485,240.648z M95.489,247.906h-3.621  c-0.811,0-1.474-0.664-1.474-1.475s0.664-1.474,1.474-1.474h3.621c0.811,0,1.475,0.663,1.475,1.474S96.3,247.906,95.489,247.906z   M106.668,259.758c0,0.811-0.664,1.474-1.474,1.474l0,0c-0.811,0-1.474-0.663-1.474-1.474v-3.621c0-0.811,0.663-1.475,1.474-1.475  l0,0c0.811,0,1.474,0.664,1.474,1.475V259.758z M106.668,236.728c0,0.811-0.664,1.474-1.474,1.474l0,0  c-0.811,0-1.474-0.663-1.474-1.474v-3.621c0-0.812,0.663-1.475,1.474-1.475l0,0c0.811,0,1.474,0.663,1.474,1.475V236.728z   M118.52,247.906h-3.621c-0.811,0-1.474-0.664-1.474-1.475s0.663-1.474,1.474-1.474h3.621c0.811,0,1.474,0.663,1.474,1.474  S119.33,247.906,118.52,247.906z"></path>
<path id="XMLID_10_" fill="#334999" d="M104.992,247.374L104.992,247.374c-1.05-0.606-1.46-1.917-0.942-3.014l11.099-23.492  l4.05,2.336l-10.935,23.147C107.681,247.582,106.172,248.055,104.992,247.374z"></path>
<g id="XMLID_5_">
	<path fill="#9FACD9" d="M125.909,191.459c-3.339,3.67-9.092,3.14-14.05,3.331c-11.395,0.439-22.425,6.602-28.774,16.073   c15.775,1.63,31.028,8.014,43.261,18.105c6.542,5.396,12.971,12.162,21.421,12.882l-19.271-48.398L125.909,191.459z"></path>
</g>
<path id="XMLID_2_" fill="#1F3D83" d="M153.244,135.518c0.311-0.291,1.308-1.429,1.314-1.003c0.037,2.667-0.506,11.231-6.792,30.593  c-7.875,24.253-11.089,40.617-4.66,56.396s6.134,23.521,20.747,23.669c14.658,0.148,65.99,3.81,92.046-9.643l5.552,2.671  c0,0-29.805,19.244-68.669,20.706c0,0-16.364,0.292-33.02-2.338c0,0-8.609,0-20.084-20.163  c-11.475-20.162-12.644-44.479-12.644-44.479s-0.343-17.026,18.092-46.761C145.126,145.166,150.421,138.164,153.244,135.518z"></path>
<path id="XMLID_79_" fill="#9FACD9" d="M231.028,238.9c0,0-14.285-48.371,36.56-57.137c50.845-8.767,62.825,30.197,64.286,42.712  c1.461,12.516,1.754,14.117,1.754,14.117H259.99L231.028,238.9z"></path>
<g id="XMLID_13_">
	<path id="XMLID_125_" fill="#27367C" d="M277.425,214.721h32.02c0.542,0,0.983-0.44,0.983-0.982s-0.441-0.982-0.983-0.982h-32.02   c-0.542,0-0.983,0.44-0.983,0.982S276.883,214.721,277.425,214.721z"></path>
	<path id="XMLID_126_" fill="#27367C" d="M309.445,216.787h-32.02c-0.542,0-0.983,0.441-0.983,0.984   c0,0.542,0.441,0.982,0.983,0.982h32.02c0.542,0,0.983-0.44,0.983-0.982C310.428,217.229,309.987,216.787,309.445,216.787z"></path>
	<path id="XMLID_127_" fill="#27367C" d="M309.445,220.82h-32.02c-0.542,0-0.983,0.44-0.983,0.982s0.441,0.983,0.983,0.983h32.02   c0.542,0,0.983-0.441,0.983-0.983S309.987,220.82,309.445,220.82z"></path>
	<path id="XMLID_128_" fill="#27367C" d="M309.445,224.853h-32.02c-0.542,0-0.983,0.44-0.983,0.982c0,0.543,0.441,0.983,0.983,0.983   h32.02c0.542,0,0.983-0.44,0.983-0.983C310.428,225.293,309.987,224.853,309.445,224.853z"></path>
</g>
<g id="XMLID_17_">
	<path id="XMLID_19_" fill="#1F3D83" d="M282.872,252.988v3.49c0.761-0.011,1.481-0.021,2.153-0.031v-3.494   C284.358,252.965,283.638,252.977,282.872,252.988z"></path>
	<path id="XMLID_22_" fill="#1F3D83" d="M253.375,252.858c-10.003-0.492-10.944-5.359-10.987-5.629   c-0.126-0.947-0.992-1.624-1.939-1.512c-0.962,0.11-1.651,0.98-1.541,1.942c0.038,0.329,1.079,8.051,14.297,8.7   c3.964,0.195,8.846,0.26,13.594,0.26c5.035,0,11.311-0.073,16.074-0.142v-3.49C274.62,253.115,261.13,253.238,253.375,252.858z"></path>
	<path id="XMLID_34_" fill="#1F3D83" d="M285.056,252.953c-0.011,0-0.021,0-0.031,0v3.494c0.009-0.001,0.017-0.001,0.025-0.001   c0.024-0.571,0.059-1.183,0.059-1.822C285.109,254.041,285.081,253.48,285.056,252.953z"></path>
	<path id="XMLID_8_" fill="#1F3D83" d="M334.022,249.175h-46.667c-2.414,0-2.396,1.593-2.299,3.778   c0.024,0.527,0.053,1.088,0.053,1.671c0,0.64-0.034,1.251-0.059,1.822c-0.091,2.106-0.053,3.627,2.305,3.627h46.667   c2.997,0,5.449-2.452,5.449-5.449S337.019,249.175,334.022,249.175z"></path>
</g>
<g id="XMLID_14_">
	<path id="XMLID_89_" fill="#27367C" d="M173.642,122.81c0,0-5.551,5.333-7.67,8.985s0,5.26,0,5.26s4.631-7.452,8.708-10.666   C174.68,126.389,173.642,124.65,173.642,122.81z"></path>
	<path id="XMLID_7_" fill="#252C5D" d="M173.642,123.541c0.095,2.449,2.005,4.456,4.456,4.456l0,0c2.451,0,4.456-2.005,4.456-4.456   v-0.73c0-2.451-2.005-4.457-4.456-4.457l0,0C178.098,118.354,173.447,118.534,173.642,123.541z"></path>
	<path id="XMLID_16_" fill="#27367C" d="M178.755,123.175l2.484-2.192c0,0-5.844,0-5.432,3.101c0.378,2.844,6.066,1.205,6.066,1.205   S178.902,125.951,178.755,123.175z"></path>
	<ellipse id="XMLID_84_" fill="#334999" cx="181.239" cy="123.175" rx="2.484" ry="2.191"></ellipse>
</g>
<path id="XMLID_15_" fill="#27367C" d="M155.963,115.424"></path>
<g id="XMLID_56_">
	<g id="XMLID_35_">
		<g id="XMLID_61_">
			<path fill="#FCD7C6" d="M196.041,238.333l1.125,1.78c2.076,0.191,4.153,0.361,6.233,0.499c-0.931-2.136-2.048-4.87-3.162-7.989     c-2.114,0.727-4.228,1.452-6.341,2.179C194.59,235.991,195.305,237.168,196.041,238.333z"></path>
		</g>
		<path id="XMLID_59_" fill="#161831" d="M205.632,245.417c0,0-0.65-1.272-1.617-3.417c-0.139-0.316-0.98-2.232-1.102-2.518    c-0.108-0.253-0.122,0.716-0.123,1.081c-0.982-0.072-1.962-0.155-2.943-0.235c-0.207-0.216-1.2-1.886-3.371-1.306    c-1.518,0.405,0.84,1.329,0.84,1.329l-10.671,5.308L205.632,245.417z"></path>
	</g>
	<path id="XMLID_132_" fill="#F7A851" d="M250.235,147.192l-23.265,1.809c0,0-25.136,14.092-37.985,32.794   c-4.707,6.635-8.728,15.651-6.646,25.706c1.724,8.322,5.434,16.032,9.482,23.595c0.668,1.248,1.36,2.483,2.074,3.706   c2.114-0.727,4.228-1.452,6.341-2.179c-4.097-11.476-8.068-28.067-1.89-38.523C208.554,176.826,260.883,170,250.235,147.192z"></path>
</g>
<path id="XMLID_120_" fill="#FAF9F8" d="M225.436,83.659c7.185,4.204,24.731,23.425,24.799,63.533l-23.265,1.809  c0,0-0.374-18.604-13.19-40.812c0,0-3.046-5.67-2.628-13.787c0.186-3.596,1.744-7.044,4.455-9.415  C218.034,82.868,221.455,81.33,225.436,83.659z"></path>
<g id="XMLID_57_">
	<path id="XMLID_36_" fill="#FCD7C6" d="M219.8,85.75c-1.581,0.55-2.795,1.837-3.468,3.37c-2.018,4.599-1.593,15.266,12.847,34.055   c18.312,23.83-45.293-16.824-52.064-2.673c0,0-3.34,5.781,0.811,1.583c5.908-5.976,32.522,14.107,46.414,19.611   c15.487,6.137,21.429-2.751,17.923-15.938C239.006,113.515,230.375,82.069,219.8,85.75z"></path>
	<path id="XMLID_55_" fill="#FFFFFF" d="M214.5,90.791c-1.357,4.191-1.718,12.287,7.502,24.129l15.091-8.484   c0,0-6.593-24.963-17.53-21.033C217.132,86.276,215.297,88.333,214.5,90.791z"></path>
</g>
<path id="XMLID_121_" fill="#FFFFFF" d="M211.152,94.403c0,0-1.13-4.136-0.74-5.889c0.39-1.753,3.994-8.766,8.182-10.325  c0,0,3.117-1.071,4.177,4.44C222.77,82.629,215.107,83.246,211.152,94.403z"></path>
<g id="XMLID_147_">
	<path id="XMLID_134_" fill="#FCD7C6" d="M209.269,47.228c-7.557-3.274-16.275,2.33-16.647,10.557   c-0.08,1.764,0.357,3.785,0.979,6.085c3.926,14.552,12.151,22.013,20.18,9.741C219.802,64.405,217.799,50.924,209.269,47.228z"></path>
	<path id="XMLID_135_" fill="#FCD7C6" d="M218.301,59.78c-1.363-1.559-2.435,0.974-2.435,0.974c-0.39,2.825-0.195,5.844,1.217,5.844   C218.497,66.598,219.666,61.338,218.301,59.78z"></path>
	<polygon id="XMLID_137_" fill="#F9C4AE" points="200.866,63.481 200.866,72.442 202.912,71.761  "></polygon>
	<g id="XMLID_136_">
		<g id="XMLID_141_">
			<g id="XMLID_145_">
				<path fill="#FFFFFF" d="M213.667,69.269c-0.107-1.865,0.017-3.741,0.343-5.581c-1.356,1.583-2.669,3.216-4.49,4.177      c-1.286,0.678-2.771,0.971-4.218,0.831c-1.517-0.147-3.093-0.747-4.511-0.189c-0.468,0.184-0.881,0.484-1.341,0.685      c-1.507,0.658-3.197,0.146-4.631-0.757c1.173,3.038,2.787,5.936,4.235,7.696c0,0,4.056,6.215,9.558,2.773      c0,0,2.558-1.345,4.981-5.021c0.121-0.605,0.208-1.217,0.22-1.834C213.828,71.121,213.72,70.195,213.667,69.269z"></path>
			</g>
			<g id="XMLID_138_">
				<path fill="#F8F7F7" d="M216.801,59.796c-2.932,1.909-4.251,5.876-7.48,7.221c-2.331,0.971-4.992,0.282-7.506,0.515      c-1.272,0.118-2.694,1.023-3.968,1.111c-1.274,0.088-2.59-0.686-3.52-1.562c0.152,0.452,0.317,0.904,0.49,1.353      c1.434,0.903,3.124,1.415,4.631,0.757c0.46-0.201,0.874-0.501,1.341-0.685c1.418-0.558,2.994,0.042,4.511,0.189      c1.447,0.14,2.933-0.153,4.218-0.831c1.821-0.961,3.134-2.594,4.49-4.177c-0.326,1.84-0.45,3.715-0.343,5.581      c0.054,0.927,0.161,1.852,0.145,2.78c-0.012,0.617-0.099,1.229-0.22,1.834c0.063-0.095,0.126-0.173,0.188-0.271      c1.21-1.905,0.897-3.257,0.918-5.649c0.019-2.212,0.066-4.093,0.759-5.863C215.762,61.316,216.181,60.553,216.801,59.796z"></path>
			</g>
		</g>
		<path id="XMLID_139_" fill="#F8F7F7" d="M196.312,71.815c0,0,7.125,1.699,14.801-2.295c0,0-6.583,4.676-14.454,2.922    L196.312,71.815z"></path>
		<path id="XMLID_143_" fill="#F8F7F7" d="M198.236,75.072c0,0,7.61,0.981,11.305-2.236c0,0-3.123,4.087-10.916,2.821    L198.236,75.072z"></path>
	</g>
	<g id="XMLID_131_">
		<path fill="#161831" d="M216.792,62.53c-0.099,1.405,0.406,2.721-0.177,4.865c-0.655-2.722-2.134-4.624-1.817-6.348    c0.057-0.312,0.127-0.666-0.065-0.918c-0.119-0.157-0.314-0.233-0.477-0.346c-0.86-0.602-0.556-1.926-0.16-2.898    c-0.503,0.366-1.261,0.032-1.582-0.501c-0.321-0.533-0.342-1.186-0.408-1.805c-0.966,0.605-2.012,1.204-3.15,1.193    c-1.139-0.01-2.347-0.88-2.301-2.018c-1.426,1.103-3.081,1.909-4.828,2.353c-1.204,0.306-2.723,0.326-3.415-0.706    c-0.771,1.4-2.176,2.435-3.743,2.752c-0.96,0.195-2.193-0.027-2.51-0.955c-0.062-0.181-0.097-0.396-0.261-0.494    c-0.179-0.106-0.403-0.01-0.61,0.021c-0.663,0.099-1.245-0.574-1.28-1.244c-0.036-0.669,0.319-1.295,0.712-1.837    c0.58-0.8,1.272-1.519,2.049-2.129c-0.592,0.161-1.441,0.183-1.587-0.413c-0.069-0.28,0.077-0.565,0.228-0.812    c1.869-3.069,5.205-5.169,8.766-5.611c0.089-1.12,1.235-2.088,2.384-2.462c2.227-0.725,4.812-0.227,6.609,1.274    c-0.328-0.479-0.007-1.251,0.564-1.357c0.571-0.105,1.147,0.5,1.013,1.064c0.378-0.807,1.007-1.756,1.885-1.606    c0.563,0.096,0.95,0.649,1.068,1.208c0.117,0.559,0.031,1.138,0.011,1.708c-0.007,0.182,0.002,0.386,0.133,0.513    c0.117,0.113,0.294,0.127,0.453,0.164c1.289,0.29,2.527,0.831,1.835,3.256c0,0-0.537,0.895,0.955,0.911    c1.027,0.011,1.533,1.416,1.616,2.44c0.083,1.023-0.258,2.038-0.713,2.958c-0.134,0.271-0.283,0.568-0.213,0.863    c0.135,0.57,0.898,0.651,1.393,0.967c0.647,0.414,0.83,1.334,0.566,2.056s-0.807,1.085-1.469,1.475    C218.266,60.112,216.916,60.787,216.792,62.53z"></path>
	</g>
</g>
<g id="XMLID_153_">
	<path fill="#385083" d="M27.331,249.457c-0.754-3.921-3.008-7.569-2.925-11.562c0.088-4.219,2.79-8.044,2.921-12.262   c0.235-7.56-7.65-13.431-7.791-20.992c-0.05-2.701,0.913-5.302,1.595-7.915c1.645-6.304,1.65-13.021,0.066-19.338   c-0.382,0.083-0.761,0.199-1.129,0.374c-3.063,1.453-4.062,5.32-4.149,8.708c-0.087,3.389,0.337,6.98-1.218,9.992   c-1.671,3.236-5.342,5.163-6.725,8.532c-1.92,4.681,1.308,9.784,4.541,13.677c3.232,3.893,6.876,8.47,5.826,13.419   c-0.781,3.681-4.089,6.632-4.146,10.394c-0.082,5.437,6.644,10.422,4.056,15.203l10.048-0.023   C28.426,252.786,27.331,249.457,27.331,249.457z"></path>
</g>
<g id="XMLID_156_">
	<path fill="#1F3D83" d="M35.378,228.962c2.32-4.229,2.404-9.605,0.216-13.903c-1.708-3.356-4.667-6.027-5.94-9.571   c-1.317-3.665-0.643-7.707,0.004-11.548c0.647-3.841,1.227-7.92-0.251-11.522c-1.324-3.227-4.941-5.734-8.209-5.028   c1.584,6.317,1.578,13.034-0.066,19.338c-0.682,2.613-1.645,5.214-1.595,7.915c0.141,7.562,8.026,13.433,7.791,20.992   c-0.131,4.218-2.833,8.043-2.921,12.262c-0.083,3.992,2.171,7.641,2.925,11.562c0,0,1.096,3.329,0.97,8.207l2.894-0.007   c3.021-4.592-2.051-14.088-1.039-19.49C30.81,234.675,33.669,232.077,35.378,228.962z"></path>
</g>
<g id="XMLID_18_">
	<path id="XMLID_20_" fill="#F7A851" d="M87.013,173.44c-0.604-1.395-1.526-2.702-2.836-3.473c-2.181-1.283-4.934-0.854-7.386-0.231   c-5.45,1.381-11.11,3.857-13.856,8.763c-1.694,3.027-2.159,6.788-4.579,9.273c-2.208,2.269-5.53,2.944-8.382,4.318   c-6.367,3.068-10.5,10.25-9.951,17.297c0.377,4.845,2.437,10.618-1.112,13.937c-1.279,1.196-3.026,1.717-4.673,2.313   c-4.576,1.656-9.135,4.518-10.846,9.074c-1.593,4.245-0.356,9.07,1.778,13.07c1.847,3.463,4.328,6.547,6.404,9.876H43.05   c-0.863-2.463,0.563-5.134,2.258-7.117c1.696-1.982,3.775-3.79,4.578-6.272c1.14-3.523-0.587-7.547,0.755-10.997   c1.507-3.873,6.06-5.345,9.638-7.458c4.274-2.523,7.733-6.771,8.376-11.692c0.608-4.649-1.171-9.876,1.419-13.784   c1.255-1.895,3.317-3.063,5.248-4.265c3.938-2.45,7.701-5.398,10.144-9.34C87.91,182.789,88.855,177.697,87.013,173.44z"></path>
	<g id="XMLID_96_">
		<path id="XMLID_167_" fill="#F08223" d="M87.853,169.251c0,0-0.131,0.422-0.375,1.213c-0.27,0.784-0.672,1.938-1.356,3.335    c-0.687,1.393-1.619,3.05-2.931,4.789c-1.312,1.731-2.964,3.592-5.093,5.257c-2.11,1.683-4.631,3.171-7.289,4.633    c-2.654,1.477-5.45,2.977-7.967,4.976c-2.487,1.989-4.787,4.508-5.843,7.571c-0.251,0.771-0.46,1.523-0.558,2.358    c-0.102,0.807-0.13,1.61-0.121,2.471c0.027,1.702,0.214,3.461,0.208,5.303c-0.008,0.92-0.049,1.858-0.224,2.803    c-0.093,0.471-0.187,0.943-0.343,1.405l-0.108,0.349c-0.066,0.199-0.09,0.23-0.138,0.354c-0.09,0.208-0.154,0.396-0.266,0.62    c-0.876,1.822-2.133,3.228-3.528,4.418c-2.775,2.374-5.951,3.879-8.524,5.734c-2.585,1.841-4.776,4.163-5.316,6.863    c-0.056,0.355-0.122,0.627-0.146,1.021c-0.018,0.323-0.026,0.66-0.015,1.014c0.02,0.697,0.087,1.399,0.172,2.093    c0.17,1.391,0.416,2.742,0.586,4.087c0.363,2.739-0.011,5.262-0.387,7.379c-0.394,2.129-0.728,3.948-0.913,5.463    c-0.254,1.505-0.311,2.712-0.332,3.536c-0.031,0.826-0.009,1.271-0.009,1.271s-0.115-0.428-0.264-1.253    c-0.131-0.825-0.258-2.052-0.251-3.626c0.06-1.567,0.339-3.451,0.637-5.568c0.292-2.116,0.502-4.483,0.103-7.005    c-0.201-1.276-0.491-2.633-0.712-4.07c-0.11-0.72-0.207-1.462-0.252-2.237c-0.024-0.382-0.03-0.788-0.016-1.212    c0.009-0.354,0.078-0.824,0.14-1.218c0.31-1.65,1.104-3.221,2.165-4.545c1.053-1.34,2.34-2.479,3.706-3.5    c1.363-1.037,2.853-1.916,4.271-2.804c1.425-0.897,2.833-1.825,4.076-2.909c1.246-1.057,2.33-2.36,2.977-3.717    c0.702-1.493,0.932-3.05,0.94-4.761c0.02-1.689-0.155-3.45-0.175-5.265c-0.007-0.897,0.032-1.851,0.158-2.779    c0.111-0.904,0.365-1.844,0.677-2.714c1.307-3.537,3.904-6.21,6.579-8.278c2.728-2.062,5.663-3.493,8.343-4.887    c2.693-1.387,5.207-2.695,7.305-4.239c4.226-3.06,6.866-6.688,8.357-9.351c0.751-1.34,1.264-2.438,1.585-3.199    C87.689,169.661,87.853,169.251,87.853,169.251z"></path>
	</g>
</g>
<circle id="XMLID_130_" fill="#F08223" cx="3.743" cy="227.594" r="3.743"></circle>
<circle id="XMLID_151_" fill="#F08223" cx="41.301" cy="182.301" r="1.422"></circle>
<circle id="XMLID_160_" fill="#334999" cx="2.217" cy="194.271" r="2.13"></circle>
<g id="XMLID_187_">
	<path fill="#385083" d="M396.97,251.26c0.62-3.223,2.473-6.221,2.403-9.502c-0.072-3.467-2.292-6.609-2.399-10.075   c-0.193-6.212,6.286-11.037,6.401-17.251c0.042-2.22-0.749-4.356-1.31-6.504c-1.352-5.181-1.356-10.7-0.055-15.891   c0.313,0.067,0.625,0.163,0.928,0.307c2.517,1.194,3.338,4.372,3.409,7.156c0.072,2.785-0.276,5.736,1.002,8.211   c1.373,2.66,4.39,4.242,5.525,7.012c1.578,3.847-1.074,8.039-3.73,11.238s-5.651,6.961-4.788,11.027   c0.642,3.024,3.36,5.449,3.407,8.541c0.066,4.467-5.46,8.564-3.333,12.493l-8.258-0.02C396.07,253.995,396.97,251.26,396.97,251.26   z"></path>
</g>
<g id="XMLID_184_">
	<path fill="#1F3D83" d="M390.358,234.417c-1.907-3.475-1.976-7.893-0.178-11.425c1.403-2.758,3.835-4.953,4.881-7.865   c1.082-3.012,0.528-6.333-0.003-9.489s-1.009-6.509,0.207-9.469c1.088-2.651,4.061-4.712,6.746-4.132   c-1.302,5.19-1.297,10.71,0.055,15.891c0.561,2.147,1.352,4.284,1.31,6.504c-0.115,6.214-6.595,11.039-6.401,17.251   c0.107,3.466,2.327,6.608,2.399,10.075c0.069,3.281-1.783,6.279-2.403,9.502c0,0-0.9,2.735-0.797,6.743l-2.378-0.006   c-2.482-3.773,1.686-11.576,0.854-16.016C394.111,239.111,391.762,236.977,390.358,234.417z"></path>
</g>
<g id="XMLID_176_">
	<path id="XMLID_181_" fill="#F7A851" d="M347.926,188.793c0.496-1.146,1.254-2.221,2.33-2.854c1.792-1.054,4.055-0.701,6.069-0.19   c4.479,1.136,9.13,3.17,11.387,7.201c1.393,2.487,1.774,5.578,3.763,7.62c1.815,1.864,4.545,2.42,6.889,3.549   c5.232,2.521,8.628,8.423,8.177,14.214c-0.31,3.98-2.003,8.726,0.914,11.452c1.052,0.983,2.487,1.41,3.841,1.9   c3.76,1.361,7.507,3.713,8.912,7.457c1.309,3.488,0.293,7.453-1.461,10.74c-1.519,2.847-3.557,5.38-5.263,8.115h-9.431   c0.709-2.023-0.463-4.218-1.855-5.848c-1.394-1.63-3.103-3.115-3.763-5.155c-0.937-2.895,0.482-6.201-0.62-9.037   c-1.238-3.183-4.98-4.392-7.921-6.128c-3.513-2.073-6.354-5.563-6.883-9.608c-0.5-3.82,0.963-8.115-1.166-11.327   c-1.032-1.557-2.727-2.518-4.313-3.504c-3.235-2.014-6.328-4.437-8.336-7.676S346.413,192.29,347.926,188.793z"></path>
	<g id="XMLID_177_">
		<path id="XMLID_159_" fill="#F08223" d="M347.237,185.35c0,0,0.137,0.336,0.395,0.966c0.269,0.623,0.7,1.521,1.322,2.616    c1.237,2.18,3.427,5.137,6.897,7.622c1.723,1.257,3.788,2.316,6.004,3.449c2.205,1.138,4.629,2.308,6.889,4.008    c2.216,1.706,4.376,3.916,5.473,6.865c0.262,0.725,0.474,1.513,0.566,2.263c0.105,0.772,0.139,1.569,0.133,2.311    c-0.016,1.501-0.158,2.947-0.141,4.323c0.009,1.396,0.193,2.634,0.761,3.843c0.511,1.073,1.386,2.136,2.396,2.992    c2.028,1.789,4.563,2.975,6.844,4.692c1.129,0.848,2.195,1.793,3.071,2.911c0.881,1.104,1.545,2.421,1.803,3.805    c0.052,0.327,0.108,0.731,0.114,1.019c0.012,0.357,0.005,0.697-0.016,1.015c-0.04,0.644-0.121,1.257-0.215,1.851    c-0.206,1.155-0.405,2.271-0.596,3.343c-0.333,2.053-0.174,3.984,0.059,5.724c0.235,1.738,0.461,3.293,0.498,4.585    c-0.017,1.3-0.137,2.31-0.259,2.988c-0.138,0.677-0.24,1.027-0.24,1.027s0.009-0.367-0.032-1.046    c-0.031-0.678-0.094-1.668-0.324-2.898c-0.164-1.24-0.443-2.729-0.775-4.479c-0.316-1.74-0.639-3.827-0.344-6.098    c0.15-1.076,0.308-2.198,0.471-3.359c0.067-0.567,0.12-1.141,0.134-1.707c0.008-0.288,0-0.559-0.015-0.814    c-0.021-0.329-0.075-0.534-0.121-0.823c-0.436-2.158-2.205-4.036-4.319-5.533c-2.098-1.507-4.715-2.748-7.02-4.716    c-1.159-0.989-2.208-2.153-2.949-3.691c-0.093-0.189-0.145-0.341-0.22-0.513c-0.04-0.104-0.055-0.118-0.116-0.299l-0.091-0.292    c-0.13-0.388-0.209-0.783-0.286-1.177c-0.146-0.79-0.179-1.571-0.186-2.333c-0.004-1.527,0.151-2.973,0.174-4.361    c0.009-0.703-0.015-1.352-0.096-2.003c-0.079-0.68-0.247-1.282-0.448-1.906c-0.846-2.476-2.71-4.531-4.736-6.159    c-2.05-1.637-4.334-2.875-6.514-4.096c-2.181-1.208-4.253-2.447-5.988-3.843c-1.751-1.38-3.102-2.926-4.175-4.358    c-1.071-1.439-1.831-2.809-2.389-3.958c-0.556-1.153-0.877-2.107-1.094-2.754C347.341,185.697,347.237,185.35,347.237,185.35z"></path>
	</g>
</g>
<circle id="XMLID_175_" fill="#F08223" cx="416.354" cy="233.293" r="3.076"></circle>
<circle id="XMLID_174_" fill="#F08223" cx="385.49" cy="196.073" r="1.168"></circle>
<circle id="XMLID_173_" fill="#334999" cx="417.607" cy="205.91" r="1.75"></circle>
<path id="XMLID_140_" fill="#9FACD9" d="M140.135,79.987c-2.464-1.319-5.668-1.112-7.942,0.512  c-0.242-4.231-3.151-8.194-7.117-9.692c-3.965-1.498-8.768-0.45-11.748,2.564c0.093-6.169-4.636-12.07-10.678-13.323  s-12.728,2.281-15.095,7.979c-1.797-2.758-4.969-4.57-8.257-4.717c-3.289-0.147-6.609,1.374-8.645,3.961  c-2.583,3.282-2.962,7.792-2.562,11.948c-1.42-1.808-4.435-1.841-6.145-0.303c-1.709,1.538-2.099,4.22-1.252,6.358  c0.007,0.019,0.019,0.037,0.026,0.056h83.271C143.576,83.102,142.14,81.061,140.135,79.987z"></path>
<path id="XMLID_148_" fill="#9FACD9" d="M343.035,70.278c-1.445-1.125-3.518-1.382-5.194-0.645c0.279-2.127-0.951-4.367-2.896-5.271  c-1.945-0.905-4.451-0.403-5.897,1.181c0.939-4.373-0.732-9.452-4.63-11.646s-9.748-0.415-11.031,3.87  c-2.225-3.152-6.593-5.433-9.934-3.504c-3.274,1.891-3.57,6.419-3.472,10.199c-1.588-2.482-4.883-3.726-7.714-2.912  c-2.832,0.813-4.964,3.617-4.991,6.563c-2.152-2.481-6.164-3.336-8.884-1.495c-1.974,1.335-2.772,4.097-2.088,6.3h68.488  C344.494,71.884,343.883,70.939,343.035,70.278z"></path>
</svg>